<svg xmlns="http://www.w3.org/2000/svg" viewBox="0 0 100 88.03"><defs><style>.cls-1{fill:#373737;}</style></defs><g id="圖層_2" data-name="圖層 2"><g id="圖層_1-2" data-name="圖層 1"><path class="cls-1" d="M72.93,46.25a3,3,0,0,0-3-3H41.5a3,3,0,0,0,0,5.93H70A3,3,0,0,0,72.93,46.25ZM11.86,68.78A2.38,2.38,0,0,1,9.49,66.4V26.09a2.37,2.37,0,0,1,2.37-2.37H73.52a2.37,2.37,0,0,1,2.37,2.37V48.44L85.38,39V9.49A9.49,9.49,0,0,0,75.89,0H9.49A9.49,9.49,0,0,0,0,9.49V68.78a9.48,9.48,0,0,0,9.49,9.48H48.18a7.09,7.09,0,0,1,2-4.1l3.26-3.25,2.13-2.13ZM28.46,8.3H38a3.56,3.56,0,0,1,0,7.12H28.46a3.56,3.56,0,0,1,0-7.12ZM14.23,7.11a4.75,4.75,0,1,1-4.74,4.75A4.75,4.75,0,0,1,14.23,7.11ZM90.28,57.72l-6.8-6.81a1.2,1.2,0,0,0-1.68,0L62.74,70a1.2,1.2,0,0,0,0,1.68l6.81,6.8a1.18,1.18,0,0,0,1.67,0L90.28,59.39A1.18,1.18,0,0,0,90.28,57.72ZM58.45,75.94a1.17,1.17,0,0,0-1.67,0c-.78.77-1.89,1.87-2.41,2.4a1.21,1.21,0,0,0-.34.74l-.59,7.67A1.19,1.19,0,0,0,54.76,88l7.38-.85a1.19,1.19,0,0,0,.7-.34l2.41-2.41a1.18,1.18,0,0,0,0-1.67ZM17.79,55.14a3,3,0,1,0,0,5.93H60.48a3,3,0,0,0,0-5.93ZM70,31.42H41.5a3,3,0,0,0,0,5.93H70a3,3,0,1,0,0-5.93Z"/><path class="cls-1" d="M28.46,30.83H19A2.37,2.37,0,0,0,16.6,33.2V45.06A2.37,2.37,0,0,0,19,47.43h9.49a2.37,2.37,0,0,0,2.37-2.37V33.2A2.37,2.37,0,0,0,28.46,30.83ZM99.65,48.34l-6.8-6.8a1.2,1.2,0,0,0-1.68,0L87.6,45.12a1.18,1.18,0,0,0,0,1.67l6.8,6.81a1.2,1.2,0,0,0,1.68,0L99.65,50A1.18,1.18,0,0,0,99.65,48.34Z"/></g></g></svg>