<svg xmlns="http://www.w3.org/2000/svg" viewBox="0 0 100 79.98"><defs><style>.cls-1{fill:#f2f0eb;}</style></defs><g id="圖層_2" data-name="圖層 2"><g id="圖層_1-2" data-name="圖層 1"><path class="cls-1" d="M59.3,0a6.4,6.4,0,0,0-6.39,6.4V43.6a2.91,2.91,0,0,1-5.82,0V6.4A6.4,6.4,0,0,0,40.7,0H12.21V61.63h25.4A19.92,19.92,0,0,1,50,65.89a19.92,19.92,0,0,1,12.39-4.26h25.4V0ZM30.23,40.7h-9.3a2.91,2.91,0,0,1,0-5.82h9.3a2.91,2.91,0,1,1,0,5.82Zm7-11.63H20.93a2.91,2.91,0,1,1,0-5.81H37.21a2.91,2.91,0,1,1,0,5.81Zm0-11.63H20.93a2.91,2.91,0,1,1,0-5.81H37.21a2.91,2.91,0,1,1,0,5.81Z"/><path class="cls-1" d="M96.51,6.4A3.48,3.48,0,0,0,93,9.88v57H64.16A22.66,22.66,0,0,0,50,71.78a22.66,22.66,0,0,0-14.16-4.92H7v-57a3.49,3.49,0,0,0-7,0v57.4a6.57,6.57,0,0,0,6.56,6.56H35.84A15.76,15.76,0,0,1,47,78.43l.54.54A3.5,3.5,0,0,0,50,80a3.46,3.46,0,0,0,2.46-1l.54-.54a15.76,15.76,0,0,1,11.16-4.59H93.44A6.57,6.57,0,0,0,100,67.28V9.88A3.48,3.48,0,0,0,96.51,6.4Z"/></g></g></svg>