<svg xmlns="http://www.w3.org/2000/svg" viewBox="0 0 100 99.99"><defs><style>.cls-1{fill:#f25041;}</style></defs><g id="圖層_2" data-name="圖層 2"><g id="圖層_1-2" data-name="圖層 1"><path class="cls-1" d="M37.44,84.33a7.83,7.83,0,1,0,7.83,7.83A7.84,7.84,0,0,0,37.44,84.33Zm39.48,0a7.83,7.83,0,1,0,7.83,7.83A7.84,7.84,0,0,0,76.92,84.33Z"/><path class="cls-1" d="M94.55,14.9H25.66L23.38,6.1A7.54,7.54,0,0,0,16,0H4.77a4.77,4.77,0,1,0,0,9.53h9.65L27.31,59.14l-5.13,11.8a4.76,4.76,0,0,0,4.37,6.66h59.9a4.77,4.77,0,1,0,0-9.53H33.82l2.88-6.64a.94.94,0,0,0,.06-.24H86.22a5.44,5.44,0,0,0,5.3-4.2L99.85,21.6A5.45,5.45,0,0,0,94.55,14.9ZM48.3,45a3.41,3.41,0,1,1-6.81,0v-14a3.41,3.41,0,0,1,6.81,0Zm16.34,0a3.41,3.41,0,1,1-6.81,0v-14a3.41,3.41,0,0,1,6.81,0ZM81,45a3.4,3.4,0,1,1-6.8,0v-14a3.4,3.4,0,0,1,6.8,0Z"/></g></g></svg>