<svg xmlns="http://www.w3.org/2000/svg" viewBox="0 0 100 95.2"><defs><style>.cls-1{fill:#f25041;}</style></defs><g id="圖層_2" data-name="圖層 2"><g id="圖層_1-2" data-name="圖層 1"><path class="cls-1" d="M17.86,19.32C12.75,17.66,11.11,16,9.44,10.9a.4.4,0,0,0-.75,0C7,16,5.38,17.66.27,19.32a.4.4,0,0,0,0,.75C5.38,21.74,7,23.38,8.69,28.49a.4.4,0,0,0,.75,0c1.67-5.11,3.31-6.75,8.42-8.42A.39.39,0,0,0,17.86,19.32Zm81-6.74c-6.26-2.41-9.06-5.2-11.46-11.46a1.73,1.73,0,0,0-3.23,0C81.78,7.38,79,10.17,72.73,12.58a1.73,1.73,0,0,0,0,3.23c6.26,2.41,9,5.2,11.46,11.46a1.73,1.73,0,0,0,3.23,0c2.4-6.26,5.2-9,11.46-11.46A1.73,1.73,0,0,0,98.88,12.58Z"/><path class="cls-1" d="M88.83,49.76c-.12-16.55-19-30-42.28-30S4.4,33.21,4.28,49.76h0V66.17h.08a24.59,24.59,0,0,0,6.86,15.32V71.22a3.16,3.16,0,1,1,6.31,0v15.7a43.68,43.68,0,0,0,7.58,4V82.58a3.16,3.16,0,1,1,6.31,0V93.17a56.3,56.3,0,0,0,8.83,1.66V90.15a3.16,3.16,0,1,1,6.31,0v5c22.8,0,41.39-12.93,42.21-29h.08V49.76ZM46.55,72.48c-19.14,0-34.71-10.13-34.71-22.57S27.41,27.35,46.55,27.35,81.26,37.47,81.26,49.91,65.69,72.48,46.55,72.48Zm0-39.79c-13.9,0-25.17,7.71-25.17,17.22S32.65,67.14,46.55,67.14s25.18-7.71,25.18-17.23S60.46,32.69,46.55,32.69Zm0,21.16A10,10,0,0,0,52,52.36a3.16,3.16,0,1,1,3.52,5.24,16.24,16.24,0,0,1-9,2.57C39,60.17,33,55.66,33,49.91S39,39.66,46.55,39.66a16.24,16.24,0,0,1,9,2.57A3.16,3.16,0,0,1,52,47.47,10,10,0,0,0,46.55,46c-4.12,0-7.21,2.08-7.21,3.93S42.43,53.85,46.55,53.85Z"/></g></g></svg>