<svg xmlns="http://www.w3.org/2000/svg" viewBox="0 0 100 100"><defs><style>.cls-1{fill:#f2955e;}</style></defs><g id="圖層_2" data-name="圖層 2"><g id="圖層_1-2" data-name="圖層 1"><path class="cls-1" d="M27.63,46.15C12.37,46.15,0,58.21,0,73.08S12.37,100,27.63,100,55.26,88,55.26,73.08,42.89,46.15,27.63,46.15Zm-4.88,19a3.21,3.21,0,1,1,0,6.41H22.1v3.85h.65a3.21,3.21,0,1,1,0,6.41h-.59a4.61,4.61,0,0,0,9.15-.65,3.29,3.29,0,0,1,6.58,0,11.18,11.18,0,0,1-22.31.65h-.72a3.21,3.21,0,1,1,0-6.41h.66V71.53h-.66a3.21,3.21,0,1,1,0-6.41h.72a11.18,11.18,0,0,1,22.31.64,3.29,3.29,0,0,1-6.58,0,4.61,4.61,0,0,0-9.15-.64ZM13.61,42.55a3.87,3.87,0,0,0,.48,0,3.26,3.26,0,0,0,3.25-2.74A25.57,25.57,0,0,1,29.48,21.76l1.08,2.32a2.13,2.13,0,0,0,3.76.13L39,15.82a2,2,0,0,0-1.39-3L28,10.75a2.06,2.06,0,0,0-2.37,2.84l1.08,2.32a32,32,0,0,0-15.92,23A3.23,3.23,0,0,0,13.61,42.55Z"/><path class="cls-1" d="M72.37,0C57.11,0,44.74,12.05,44.74,26.92S57.11,53.85,72.37,53.85,100,41.79,100,26.92,87.63,0,72.37,0ZM70.56,21.76l6.08,3a8.46,8.46,0,0,1,4.67,9.05A8.33,8.33,0,0,1,76,40.33V41.4a3.29,3.29,0,0,1-6.58,0v-.86a10.51,10.51,0,0,1-6.69-5.78,3.17,3.17,0,0,1,1.71-4.22A3.32,3.32,0,0,1,68.8,32.2a4.07,4.07,0,0,0,4.06,2.35l.3,0a1.93,1.93,0,0,0,1.65-1.67,2.14,2.14,0,0,0-1.18-2.34l-6.08-3.05a8.49,8.49,0,0,1-4.62-9.23,8.4,8.4,0,0,1,6.53-6.69v-.91a3.29,3.29,0,0,1,6.58,0v1.59a10.44,10.44,0,0,1,5.37,5.28,3.18,3.18,0,0,1-1.71,4.22,3.32,3.32,0,0,1-4.33-1.66,4,4,0,0,0-4.05-2.35A2,2,0,0,0,69.4,19.4,2.12,2.12,0,0,0,70.56,21.76Zm17.15,37A3.26,3.26,0,0,0,84,61.44,25.69,25.69,0,0,1,71.76,79.51l-1.35-2.67a2.13,2.13,0,0,0-3.76,0l-4.39,8.52a2,2,0,0,0,1.48,2.93l9.61,1.81a2.06,2.06,0,0,0,2.28-2.91l-.95-1.89a32.15,32.15,0,0,0,15.8-22.92A3.21,3.21,0,0,0,87.71,58.74Z"/></g></g></svg>