<svg xmlns="http://www.w3.org/2000/svg" viewBox="0 0 68.11 100"><defs><style>.cls-1{fill:#f2955e;}</style></defs><g id="圖層_2" data-name="圖層 2"><g id="圖層_1-2" data-name="圖層 1"><path class="cls-1" d="M46.25,90.24H21.86a4.88,4.88,0,1,0,0,9.76H46.25a4.88,4.88,0,1,0,0-9.76Z"/><path class="cls-1" d="M30.3.2C12.2,2.12-1.45,19.54.12,37.68,2.19,61.45,24.05,79.17,31.54,84.59a4.08,4.08,0,0,0,4.91-.09c7.78-6.08,31.66-26.66,31.66-50.43A34.08,34.08,0,0,0,30.3.2ZM34,47.59A13.52,13.52,0,1,1,47.56,34.07,13.52,13.52,0,0,1,34,47.59Z"/></g></g></svg>