<svg xmlns="http://www.w3.org/2000/svg" viewBox="0 0 860.86 543.23"><defs><style>.cls-1{fill:#f2f0eb;}</style></defs><g id="圖層_2" data-name="圖層 2"><g id="圖層_1-2" data-name="圖層 1"><path class="cls-1" d="M730,361l-242.6-.67a14.14,14.14,0,0,0-11,23l31.94,39.45,160.59-31.54a1.87,1.87,0,0,1,2.1,2.55L524.73,446.94a14.09,14.09,0,0,0-8.12,7.6l-20,45.55c-5.74,13.08,9.31,25.46,21,17.29l43-29.93L601.5,538a14.14,14.14,0,0,0,22.24-.32L741.17,383.72A14.14,14.14,0,0,0,730,361Z"/><path class="cls-1" d="M384.54,150.23c-5.42-.08-10.94-.4-16.42-.95A3.89,3.89,0,0,0,364,153a4,4,0,0,0,3.43,4.48c5.68.57,11.4.9,17,1h.05a4.14,4.14,0,0,0,.06-8.24Z"/><path class="cls-1" d="M417.27,147.87c-5.4.87-10.88,1.5-16.31,1.9a4,4,0,0,0-3.54,4.38A3.94,3.94,0,0,0,401.2,158h.26c5.63-.41,11.33-1.07,16.92-2a4.08,4.08,0,0,0,3.2-4.68A3.85,3.85,0,0,0,417.27,147.87Z"/><path class="cls-1" d="M351.65,147.19c-5.56-.8-11.09-1.68-16.45-2.62a3.85,3.85,0,0,0-4.35,3.41A4.08,4.08,0,0,0,334,152.7c5.42,1,11,1.84,16.66,2.65a2.92,2.92,0,0,0,.51,0,3.91,3.91,0,0,0,3.75-3.58A4.06,4.06,0,0,0,351.65,147.19Z"/><path class="cls-1" d="M449.27,139.91c-5.29,1.78-10.63,3.34-15.87,4.65a4.13,4.13,0,0,0-2.85,4.93,3.87,3.87,0,0,0,3.69,3.2,3.17,3.17,0,0,0,.86-.11c5.43-1.35,10.95-3,16.41-4.8a4.19,4.19,0,0,0,2.51-5.15A3.75,3.75,0,0,0,449.27,139.91Z"/><path class="cls-1" d="M318.85,141.42c-5.47-1.16-10.93-2.41-16.24-3.74a3.81,3.81,0,0,0-4.55,3.1,4.14,4.14,0,0,0,2.85,4.93c5.39,1.35,10.94,2.62,16.49,3.79a3.71,3.71,0,0,0,.73.08,3.89,3.89,0,0,0,3.72-3.34A4.1,4.1,0,0,0,318.85,141.42Z"/><path class="cls-1" d="M480.06,127.13c-5.14,2.52-10.26,4.85-15.23,6.92a4.22,4.22,0,0,0-2.18,5.32,3.81,3.81,0,0,0,3.54,2.64,3.47,3.47,0,0,0,1.36-.27c5.11-2.13,10.37-4.52,15.64-7.11a4.25,4.25,0,0,0,1.89-5.45A3.67,3.67,0,0,0,480.06,127.13Z"/><path class="cls-1" d="M286.51,133.34c-5.35-1.56-10.71-3.24-15.93-5a3.74,3.74,0,0,0-4.75,2.71,4.2,4.2,0,0,0,2.5,5.16c5.32,1.78,10.77,3.49,16.21,5.07a3.4,3.4,0,0,0,1,.15,3.86,3.86,0,0,0,3.66-3.06A4.15,4.15,0,0,0,286.51,133.34Z"/><path class="cls-1" d="M254.83,122.7c-5.16-2-10.39-4.09-15.53-6.3a3.71,3.71,0,0,0-4.93,2.31,4.24,4.24,0,0,0,2.13,5.35c5.24,2.24,10.55,4.4,15.81,6.41a3.52,3.52,0,0,0,1.26.24,3.82,3.82,0,0,0,3.58-2.76A4.21,4.21,0,0,0,254.83,122.7Z"/><path class="cls-1" d="M507,112.35c-4.13,2.49-8.1,4.79-12,7a4.29,4.29,0,0,0-1.65,5.55,3.77,3.77,0,0,0,3.38,2.24,3.56,3.56,0,0,0,1.73-.46c4.83-2.68,9.69-5.52,14.86-8.67a4.13,4.13,0,0,0,1.92-3.25C512.49,113.84,509.68,113,507,112.35Z"/><path class="cls-1" d="M224,109.46c-5-2.37-10-4.9-15.07-7.53a3.67,3.67,0,0,0-5.07,1.92,4.28,4.28,0,0,0,1.78,5.5c5.11,2.67,10.26,5.24,15.31,7.65a3.45,3.45,0,0,0,1.52.35,3.8,3.8,0,0,0,3.48-2.46A4.26,4.26,0,0,0,224,109.46Z"/><path class="cls-1" d="M814.52,89.06c-4.42-4-8.85-7.86-13.19-11.46a3.59,3.59,0,0,0-5.32.76,4.35,4.35,0,0,0,.7,5.77c4.25,3.54,8.6,7.33,12.94,11.25a3.57,3.57,0,0,0,2.43,1A3.65,3.65,0,0,0,815,94.86,4.35,4.35,0,0,0,814.52,89.06Z"/><path class="cls-1" d="M571.82,74.43a3.63,3.63,0,0,0-5.22-1.35L563,75.5c2.84,1.19,5.58,2.6,8.37,3.89A4.37,4.37,0,0,0,571.82,74.43Z"/><path class="cls-1" d="M787.66,66.78c-4.76-3.57-9.54-6.94-14.22-10a3.64,3.64,0,0,0-5.22,1.38,4.32,4.32,0,0,0,1.28,5.66c4.55,3,9.2,6.28,13.84,9.76a3.61,3.61,0,0,0,2.16.73,3.7,3.7,0,0,0,3.12-1.78A4.34,4.34,0,0,0,787.66,66.78Z"/><path class="cls-1" d="M595.7,54.65c-4.63,2.71-9.44,5.66-14.7,9a4.32,4.32,0,0,0-1.35,5.63,3.76,3.76,0,0,0,3.28,2,3.6,3.6,0,0,0,1.92-.57c5.18-3.3,9.91-6.2,14.46-8.86a4.3,4.3,0,0,0,1.53-5.58A3.65,3.65,0,0,0,595.7,54.65Z"/><path class="cls-1" d="M758.62,47.72c-5.16-2.89-10.35-5.52-15.44-7.82a3.71,3.71,0,0,0-5,2.22,4.26,4.26,0,0,0,2,5.39c4.9,2.21,9.9,4.74,14.88,7.53a3.57,3.57,0,0,0,1.74.46,3.78,3.78,0,0,0,3.38-2.23A4.29,4.29,0,0,0,758.62,47.72Z"/><path class="cls-1" d="M626.39,39c-5,2.12-10.27,4.59-15.59,7.33A4.27,4.27,0,0,0,609,51.81a3.79,3.79,0,0,0,3.44,2.36,3.53,3.53,0,0,0,1.62-.4c5.16-2.65,10.24-5,15.11-7.1a4.25,4.25,0,0,0,2.15-5.34A3.71,3.71,0,0,0,626.39,39Z"/><path class="cls-1" d="M108.69,37.54c-4.38-3.19-9-6.61-13.84-10.15a3.61,3.61,0,0,0-5.27,1.08,4.34,4.34,0,0,0,1,5.73c4.81,3.55,9.48,7,13.88,10.18a3.6,3.6,0,0,0,2.11.7,3.71,3.71,0,0,0,3.16-1.83A4.33,4.33,0,0,0,108.69,37.54Z"/><path class="cls-1" d="M727.1,33.59a145.67,145.67,0,0,0-16.63-4.49A3.82,3.82,0,0,0,706,32.37a4.1,4.1,0,0,0,3,4.82,139.84,139.84,0,0,1,15.82,4.28,3.69,3.69,0,0,0,1.12.18,3.85,3.85,0,0,0,3.63-2.91A4.2,4.2,0,0,0,727.1,33.59Z"/><path class="cls-1" d="M659.2,28.78A150.83,150.83,0,0,0,642.54,33a4.18,4.18,0,0,0-2.59,5.1,3.86,3.86,0,0,0,3.65,3,3.54,3.54,0,0,0,1.06-.16,142.68,142.68,0,0,1,15.87-4,4.11,4.11,0,0,0,3.08-4.78A3.84,3.84,0,0,0,659.2,28.78Z"/><path class="cls-1" d="M693.42,26.71a129.53,129.53,0,0,0-17.18-.1A4,4,0,0,0,672.66,31a3.91,3.91,0,0,0,4,3.88,122.17,122.17,0,0,1,16.24.1h.26A4,4,0,0,0,697,31.1,4,4,0,0,0,693.42,26.71Z"/><path class="cls-1" d="M144.63,215c0,.68.69,1,2.06,1q1.42,0,12.92-1.73a158.38,158.38,0,0,1,20.83-1.87q-10.45,2.59-18,5.26t-15.53,5.91q-8,3.24-11.49,4.32a20.81,20.81,0,0,1-6,1.08q-8.08,0-8.08-9.51Q121.34,195,135,185q5.53-4,17.82-9.58a263.07,263.07,0,0,1,27.73-10.52,295.29,295.29,0,0,1,34-8.58,191.68,191.68,0,0,1,36.6-3.6,113,113,0,0,1,34.07,4.9q15.52,4.9,26,13.76a59.21,59.21,0,0,1,16.08,21.69,71,71,0,0,1,5.62,28.82q0,24.36-15.45,47.27t-41.19,40.42a221.52,221.52,0,0,1-58.08,27.74,210.3,210.3,0,0,1-63.69,10.23,29.84,29.84,0,0,1-9.27-1.15,7.75,7.75,0,0,1-4.84-4.54q-1.42-3.39-1.42-10a52,52,0,0,1,1.42-13.4,70.57,70.57,0,0,1,4.76-12q22.81-46,79.38-115.72a194.92,194.92,0,0,0-25,4.4q-13.64,3.24-25.83,7.13t-20.6,7.5Q144.63,213.42,144.63,215Zm84.46-25.07c0,.19.21,1.28.63,3.24a25.08,25.08,0,0,1,.63,5.12q0,3.32-3.72,9.29T212,228.84q-10.92,15.27-18.69,26.8T174.9,285.33q-3.33,5.76-4.6,7.78c-.85,1.35-2.19,3.56-4,6.63a51.77,51.77,0,0,0-4,7.92,15.58,15.58,0,0,0-1.27,5q0,3.75,4.52,5.26t12.91,1.51q21.56,0,45.64-7.13a195.9,195.9,0,0,0,45.24-19.82q21.15-12.67,33.82-28.67t12.68-33.44q0-19.87-16-30.62t-46.59-10.73Q240.35,189.07,229.09,189.93Z"/><path class="cls-1" d="M348.25,319.92v4.6a40.37,40.37,0,0,1-8,5.49q-3,1.37-8.68,1.1-9.81,10.56-17.27,10.56a12.68,12.68,0,0,1-7.7-2.54,17.75,17.75,0,0,1-5.54-6.93,22.57,22.57,0,0,1-2.08-9.81q0-4.39,3.21-9.74a44,44,0,0,1,8.3-10,47,47,0,0,1,10.9-7.48,24.79,24.79,0,0,1,10.79-2.84,13,13,0,0,1,5.58,1,3.06,3.06,0,0,1,2,2.78,4.94,4.94,0,0,1-1.74,3.16,6.68,6.68,0,0,1,3.93,1.81c.7.85,1.05,2.4,1.05,4.64a27,27,0,0,1-1.69,8.3,40.13,40.13,0,0,1-4.64,9.4l1.35,1.24h1.13a5.89,5.89,0,0,0,2.53-.59,18.45,18.45,0,0,0,2.23-1.23Zm-15.54-18.05q-6.27,3.44-10.72,6.21a51.15,51.15,0,0,0-7.54,5.63,15,15,0,0,0-4.15,5.73q-1.89,7.68-1.89,8.3,0,4.53,6.94,4.53,3.25,0,10.87-5.08a16.55,16.55,0,0,1-1.28-6.17,21.93,21.93,0,0,1,2-8.82A69.9,69.9,0,0,1,332.71,301.87Z"/><path class="cls-1" d="M358.17,330.56a18.7,18.7,0,0,1,.75-4.43,11.59,11.59,0,0,1,2-4.42l6-7.69c1.81-2.33,3.42-4.35,4.83-6a52.06,52.06,0,0,1,4.22-4.53q12.9-12.69,18.49-19t5.58-8.75a2.82,2.82,0,0,0-1.66-2.57,8.91,8.91,0,0,0-4.37-.93q-5.6,0-14,3.6t-19.73,9.37Q349,291,347.68,291q-2,0-2-2.67a19.91,19.91,0,0,1,1.59-6.45c.8-3,1.46-5.37,2-7a11.67,11.67,0,0,1,2.53-4.49A23.44,23.44,0,0,1,357.6,266q4.11-2.34,12.64-6.39l.75,2.54a104.07,104.07,0,0,1,13.4-4,52.09,52.09,0,0,1,10.75-1.37q8.75,0,12.41,2.71t3.66,11.77a18.87,18.87,0,0,1-1.59,8.23,56.34,56.34,0,0,1-6.18,9.2q-10.5,13.86-15.77,19.21-15.32,15.93-15.32,18.6c0,1,.73,1.51,2.19,1.51q1.81,0,5.13-2.34a76.28,76.28,0,0,0,8-6.72q4.68-4.4,13-12.56,8.82-8.64,14.9-15.27t10-11.32q3.93-4.69,4.15-5a45.87,45.87,0,0,1,8.42-7.45q4.33-2.91,5.54-2.91c.61,0,1.31.5,2.12,1.51a15,15,0,0,1,2.07,3.57,9,9,0,0,1,.87,3.15A18.51,18.51,0,0,1,446.9,276q-1.81,3-3.93,6.18t-6.79,9.77a269,269,0,0,0-15.69,24.33q-5.43,9.84-5.43,12.93a2.91,2.91,0,0,0,.87,2,2.42,2.42,0,0,0,1.77.92q1.2,0,4.37-1.75a42.55,42.55,0,0,0,7-5,95.79,95.79,0,0,0,9.21-9.13,122.77,122.77,0,0,0,8.22-10.56q4.08-5.83,7.24-11c2.12-3.48,4.25-7.14,6.42-11l-1.29-3.5a6.34,6.34,0,0,1-.3-2.13c0-.68,1.49-2.91,4.45-6.69s4.93-5.66,5.89-5.66,1.95.7,2.68,2.1A9,9,0,0,1,472.7,272q0,2.32-2.3,9.29a136.11,136.11,0,0,1-7.17,16.85,152.17,152.17,0,0,1-12,20.11A87.9,87.9,0,0,1,438,333.47a69.48,69.48,0,0,1-12.72,9.44q-5.65,3.09-8.37,3.09a11.17,11.17,0,0,1-6.49-2.47,18.73,18.73,0,0,1-4-3.95,10.06,10.06,0,0,1-1.55-3.81,27,27,0,0,1-.38-4.8q0-5.84,3.55-13.66a199.42,199.42,0,0,1,10.56-19.48q-21.94,24.29-34,35.33t-17.62,11q-3.69,0-6.26-4A17.53,17.53,0,0,1,358.17,330.56Z"/><path class="cls-1" d="M556.64,287.6q-7.39,9.88-12.45,17.91a115,115,0,0,0-7.59,13.69c-1.68,3.77-2.52,6.58-2.52,8.41q0,5.07,4.9,5.07,5.21,0,23.54-12.9l-.15,4.74q-21.2,19.69-31.09,19.69-11.76,0-11.76-11.11,0-6.66,7.16-18.87t21.88-31.57q-17.28,17.16-28.86,28.2t-24,21.41l-5.36,4.63a23.07,23.07,0,0,1-4.83,3.3,11.7,11.7,0,0,1-5.28,1.2,9.65,9.65,0,0,1-7.39-3.16c-2-2.1-2.95-5.08-2.95-8.92a20,20,0,0,1,2.42-8.61,74.71,74.71,0,0,1,7.32-11.43q4.9-6.51,12.07-14.27,11.61-12.69,16.07-17.91t4.45-6.65c0-.69-.4-1-1.21-1a16.82,16.82,0,0,0-4.79,1.2,88.65,88.65,0,0,0-8.86,3.91q-5.52,2.72-14.19,7.72a83.24,83.24,0,0,1-12.79,6c-4.2,1.54-7.15,2.3-8.86,2.3a4.15,4.15,0,0,1-2.53-.75,2.31,2.31,0,0,1-1-1.92,16.21,16.21,0,0,1,1.59-5.39,53.93,53.93,0,0,1,4.11-7.76,36.43,36.43,0,0,1,4.49-6,48.09,48.09,0,0,1,14.86-9.67,104.55,104.55,0,0,1,19.39-6.45,77.13,77.13,0,0,1,16.45-2.27q4.83,0,7.06,1.48a5.36,5.36,0,0,1,2.22,4.83q0,7.35-2,11.36a76.49,76.49,0,0,1-6.79,10.4c-1.15,1.64-2.88,3.9-5.17,6.76s-4.6,5.65-6.94,8.37-4.26,5-5.77,6.82-3.07,3.85-4.68,6q-6.56,8.79-8.3,11.32a8.29,8.29,0,0,0-1.73,4.4q0,2.4,2.49,2.4a7.47,7.47,0,0,0,4.37-1.48q2.12-1.47,9.06-7,8-6.24,15.54-13.11T532,289.9q6.19-6.21,15.7-16.09,10.64-11.25,13.58-14.07t4.83-2.81c1.1,0,2.1.81,3,2.43a14.53,14.53,0,0,1,1.32,6.83q0,2.34-2.6,6.21T556.64,287.6Z"/><path class="cls-1" d="M592.81,343.66l-4.68-3.08a2.28,2.28,0,0,1-1-1.72q0-.89,3.54-6.18,2.57-3.76,6.91-10.36t7-10.84q2.64-4.26,6.45-11.15t7-13.48q7.3-15.17,7.31-19.35c0-3.3-1.4-4.95-4.22-4.95-2.11,0-5.12,1-9,2.92a79.06,79.06,0,0,0-12.11,7.65A59.32,59.32,0,0,0,589.49,283q-4.15,5.14-4.15,9.06a1.15,1.15,0,0,0,.38.93,2.24,2.24,0,0,0,1.36.31c1.2,0,3.17-.64,5.88-1.92,1.21-.55,1.81-.46,1.81.27s-1.91,2.62-5.73,5.66-6.64,4.56-8.45,4.56q-2.34,0-6.53-3.67t-4.19-6.69q0-1.17,2.34-5.56a82.51,82.51,0,0,1,6.42-9.91,62.2,62.2,0,0,1,20.48-18,76.77,76.77,0,0,1,12.83-5.77,33.13,33.13,0,0,1,9.92-2.06,10.38,10.38,0,0,1,8.49,3.74c2,2.5,3,6,3,10.47q0,8.91-7.69,25.8T602,329.73c.15.46.32.95.52,1.48a4.17,4.17,0,0,1,.31,1.47,1.33,1.33,0,0,1-.23.52c-.15.25-.33.51-.53.79a6.58,6.58,0,0,0-.38.55l-5.5,8.23q-.91,1.44-1.89,1.44A2.15,2.15,0,0,1,592.81,343.66Z"/><path class="cls-1" d="M729.18,349.56a6.66,6.66,0,0,1-2.67-.89,59.33,59.33,0,0,1-5.14-3.05q-3.35-2.16-7.58-4.77L673,315.94,660.9,330.42a5.8,5.8,0,0,1-.53,2.78,13,13,0,0,1-2.26,2.57,68.48,68.48,0,0,1-7.06,6,9.37,9.37,0,0,1-5.24,2.06,2.65,2.65,0,0,1-2-.86,2.87,2.87,0,0,1-.83-2.09q0-1.65,2.11-4.39l22.11-25a9.94,9.94,0,0,1-2-5.76,7.54,7.54,0,0,1,1.85-5.15,15.08,15.08,0,0,1,4.26-3.43q2.42-1.31,13.35-6.59,15.54-18.74,15.55-21c0-1-.66-1.51-2-1.51s-4.36.74-9,2.2S678.54,274,671,277s-16.53,6.94-26.89,11.7a5.79,5.79,0,0,1-2.91.51,4.27,4.27,0,0,1-2.75-1.16,3.71,3.71,0,0,1-1.14-2.85,3.92,3.92,0,0,1,.27-1.3q.26-.76.87-2.37l1.05-2.85c.1-.27.34-1.26.72-2.95a14.18,14.18,0,0,1,1.92-4.63,20.51,20.51,0,0,1,4.64-4.63,49.48,49.48,0,0,1,9.4-5.36,6.76,6.76,0,0,1,2.11-.78c.65-.12,1,.05,1,.51a9.24,9.24,0,0,1-2.22,1.68,22.17,22.17,0,0,0-4.87,4.84q22-7,32.48-9.85t16.79-2.85q3.47,0,5.81,4.29c1.56,2.86,2.34,4.73,2.34,5.59a7.9,7.9,0,0,1-1.66,4.33l-12.08,16.47q14.34-6.45,22.3-10.26l17.32-8.3q9.34-4.5,11.84-5.63a10.69,10.69,0,0,1,3.25-1.13c1.15,0,1.73.48,1.73,1.44,0,.55-.87,2-2.6,4.49a42.19,42.19,0,0,1-5.77,6.59c-2.12,1.94-3.88,2.92-5.29,2.92a4.14,4.14,0,0,1-1.28-.25l-1.43-.44q-10.18,4.8-24.94,11.39t-23.27,10.29l-6.49,8.85,38.25,23.61a77.8,77.8,0,0,1,7.66,5.15,13.46,13.46,0,0,1,3.55,4.18,12.36,12.36,0,0,1,1.16,5.7Q731.82,349.57,729.18,349.56Z"/><path class="cls-1" d="M771.09,343.66l-4.68-3.08a2.28,2.28,0,0,1-1-1.72q0-.89,3.54-6.18,2.57-3.76,6.91-10.36t7-10.84q2.64-4.26,6.45-11.15t7-13.48q7.32-15.17,7.32-19.35,0-5-4.23-4.95c-2.11,0-5.12,1-9,2.92a79,79,0,0,0-12.1,7.65A59,59,0,0,0,767.77,283q-4.14,5.14-4.15,9.06a1.15,1.15,0,0,0,.38.93,2.24,2.24,0,0,0,1.36.31q1.82,0,5.88-1.92c1.21-.55,1.81-.46,1.81.27s-1.91,2.62-5.73,5.66-6.64,4.56-8.45,4.56q-2.34,0-6.53-3.67t-4.18-6.69q0-1.17,2.33-5.56a82.51,82.51,0,0,1,6.42-9.91,62.2,62.2,0,0,1,20.48-18,76.77,76.77,0,0,1,12.83-5.77,33.13,33.13,0,0,1,9.92-2.06,10.38,10.38,0,0,1,8.49,3.74c2,2.5,3.06,6,3.06,10.47q0,8.91-7.7,25.8T780.3,329.73c.15.46.32.95.53,1.48a4.15,4.15,0,0,1,.3,1.47,1.33,1.33,0,0,1-.23.52c-.15.25-.33.51-.53.79a4.21,4.21,0,0,0-.37.55l-5.51,8.23q-.91,1.44-1.89,1.44A2.15,2.15,0,0,1,771.09,343.66Z"/><path class="cls-1" d="M824.92,118.84s31.51,38.77,16.94,54c-33.37,34.91-131.43-35.64-243.21-81.93Q585,85.27,571.14,79.63a3.51,3.51,0,0,1-.56.46c-4.79,3.2-9.63,6.49-14.19,9.59a3.55,3.55,0,0,1-2,.63,3.72,3.72,0,0,1-3.22-1.93,4.32,4.32,0,0,1,1.2-5.68c3.18-2.16,6.5-4.42,9.85-6.67C406,13.24,234.6-39.74,110.37,41a4.26,4.26,0,0,1-.64,2.28,3.71,3.71,0,0,1-3.16,1.83,3.54,3.54,0,0,1-1.68-.44A252.47,252.47,0,0,0,66.17,77.69c-96.26,100.19-96.2,291,58.26,380.64,50.66,29.41,120.25,58.42,223.22,43.73,74-10.57,161.58-65,161.58-65s-108.4,51.24-218.62,40.14h.06S119.91,478.45,73.46,339.51C42.39,246.57,91,183.55,91,183.55s-31.3,105.46,14.69,184C119.45,391.07,140,410,162.47,425.1a223.62,223.62,0,0,1-38.16-42.48c-45.82-65.84-43.92-182.32,11-239.85a192.16,192.16,0,0,1,57.09-41.15h-.05a3.62,3.62,0,0,1-1.75-.47c-4.83-2.74-9.82-5.65-14.82-8.67a4.3,4.3,0,0,1-1.47-5.6,3.64,3.64,0,0,1,5.17-1.59c4.93,3,9.86,5.85,14.63,8.55a4.3,4.3,0,0,1,1.61,5.56,4.08,4.08,0,0,1-.64,1c95.2-43.58,221.85-14.47,312,11.94l2.51-1.52a3.64,3.64,0,0,1,5.17,1.58,4.42,4.42,0,0,1,.47,2.35c26.55,7.91,49.57,15.36,67.2,20.28,134.75,37.58,229.27,95.54,270.31,57.31C881.49,165.5,824.92,118.84,824.92,118.84ZM137.76,63.08a3.72,3.72,0,0,1-3.2,1.9,3.61,3.61,0,0,1-2-.64c-4.48-3.1-9.22-6.43-14.08-9.9a4.31,4.31,0,0,1-1.09-5.7,3.62,3.62,0,0,1,5.25-1.19c4.84,3.45,9.55,6.76,14,9.84A4.34,4.34,0,0,1,137.76,63.08ZM166.34,82a3.72,3.72,0,0,1-3.27,2,3.49,3.49,0,0,1-1.92-.57c-4.65-3-9.49-6.13-14.4-9.41a4.31,4.31,0,0,1-1.24-5.66A3.62,3.62,0,0,1,150.73,67c4.86,3.25,9.66,6.39,14.27,9.32A4.32,4.32,0,0,1,166.34,82ZM542.17,99.31c-5.42,3.65-10,6.67-14.35,9.5a3.52,3.52,0,0,1-1.94.59,3.75,3.75,0,0,1-3.26-2,4.32,4.32,0,0,1,1.31-5.65c4.33-2.81,8.86-5.8,14.24-9.42a3.62,3.62,0,0,1,5.23,1.32A4.33,4.33,0,0,1,542.17,99.31Z"/></g></g></svg>