<?xml version="1.0" encoding="utf-8"?>
<!-- Generator: Adobe Illustrator 24.3.0, SVG Export Plug-In . SVG Version: 6.00 Build 0)  -->
<svg version="1.1" id="圖層_1" xmlns="http://www.w3.org/2000/svg" xmlns:xlink="http://www.w3.org/1999/xlink" x="0px" y="0px"
	 viewBox="0 0 860.9 543.2" style="enable-background:new 0 0 860.9 543.2;" xml:space="preserve">
<style type="text/css">
	.st0{fill:#F25041;}
</style>
<g id="圖層_2_1_">
	<g id="圖層_1-2">
		<path class="st0" d="M730,361l-242.6-0.7c-7.8,0-14.1,6.4-14.1,14.2c0,3.2,1.1,6.3,3.1,8.8l31.9,39.5l160.6-31.5
			c1-0.2,2,0.4,2.2,1.5c0.1,0.4,0,0.7-0.1,1.1l-146.3,53.2c-3.6,1.3-6.6,4.1-8.1,7.6l-20,45.5c-5.7,13.1,9.3,25.5,21,17.3l43-29.9
			l40.9,50.5c4.9,6.1,13.8,7,19.9,2.1c0.9-0.7,1.7-1.5,2.4-2.4l117.4-154c4.7-6.2,3.5-15.1-2.7-19.8C736.1,362,733.1,361,730,361z"
			/>
		<path class="st0" d="M384.5,150.2c-5.4-0.1-10.9-0.4-16.4-0.9c-2.1-0.1-4,1.5-4.1,3.6c0,0,0,0,0,0.1c-0.3,2.2,1.2,4.2,3.4,4.5
			c5.7,0.6,11.4,0.9,17,1h0c2.3-0.2,4-2.2,3.7-4.5C388,152,386.5,150.4,384.5,150.2L384.5,150.2z"/>
		<path class="st0" d="M417.3,147.9c-5.4,0.9-10.9,1.5-16.3,1.9c-2.2,0.2-3.8,2.2-3.5,4.4c0,2.1,1.7,3.8,3.8,3.9h0.3
			c5.6-0.4,11.3-1.1,16.9-2c2.2-0.4,3.6-2.5,3.2-4.7c-0.2-2.1-2.1-3.7-4.2-3.5C417.3,147.9,417.3,147.9,417.3,147.9z"/>
		<path class="st0" d="M351.6,147.2c-5.6-0.8-11.1-1.7-16.5-2.6c-2.1-0.3-4,1.2-4.3,3.3c0,0,0,0.1,0,0.1c-0.4,2.2,1,4.3,3.2,4.7
			c5.4,1,11,1.8,16.7,2.6c0.2,0,0.3,0,0.5,0c2-0.1,3.6-1.6,3.8-3.6C355.2,149.6,353.8,147.6,351.6,147.2z"/>
		<path class="st0" d="M449.3,139.9c-5.3,1.8-10.6,3.3-15.9,4.6c-2.1,0.6-3.4,2.8-2.9,4.9c0.3,1.8,1.9,3.1,3.7,3.2
			c0.3,0,0.6,0,0.9-0.1c5.4-1.4,11-3,16.4-4.8c2.1-0.8,3.2-3,2.5-5.1c-0.5-2-2.5-3.3-4.5-2.8C449.4,139.9,449.3,139.9,449.3,139.9z"
			/>
		<path class="st0" d="M318.9,141.4c-5.5-1.2-10.9-2.4-16.2-3.7c-2.1-0.4-4.1,0.9-4.5,2.9c0,0.1,0,0.1,0,0.2
			c-0.5,2.1,0.7,4.3,2.9,4.9c5.4,1.4,10.9,2.6,16.5,3.8c0.2,0.1,0.5,0.1,0.7,0.1c1.9-0.1,3.5-1.5,3.7-3.3
			C322.3,144.1,321,142,318.9,141.4z"/>
		<path class="st0" d="M480.1,127.1c-5.1,2.5-10.3,4.8-15.2,6.9c-2,0.9-3,3.2-2.2,5.3c0.5,1.5,1.9,2.6,3.5,2.6
			c0.5,0,0.9-0.1,1.4-0.3c5.1-2.1,10.4-4.5,15.6-7.1c2-1,2.8-3.4,1.9-5.4c-0.7-1.9-2.8-2.9-4.7-2.2
			C480.3,127,480.2,127.1,480.1,127.1z"/>
		<path class="st0" d="M286.5,133.3c-5.4-1.6-10.7-3.2-15.9-5c-2-0.6-4.1,0.5-4.7,2.5c0,0.1,0,0.2-0.1,0.2c-0.7,2.1,0.4,4.4,2.5,5.2
			c5.3,1.8,10.8,3.5,16.2,5.1c0.3,0.1,0.7,0.2,1,0.1c1.8-0.1,3.3-1.3,3.7-3.1C289.8,136.2,288.6,134,286.5,133.3z"/>
		<path class="st0" d="M254.8,122.7c-5.2-2-10.4-4.1-15.5-6.3c-1.9-0.8-4.1,0.1-4.8,2c0,0.1-0.1,0.2-0.1,0.3
			c-0.8,2.1,0.1,4.4,2.1,5.3c5.2,2.2,10.6,4.4,15.8,6.4c0.4,0.2,0.8,0.2,1.3,0.2c1.7,0,3.1-1.2,3.6-2.8
			C257.9,125.9,256.9,123.6,254.8,122.7z"/>
		<path class="st0" d="M507,112.3c-4.1,2.5-8.1,4.8-12,7c-1.9,1.1-2.6,3.6-1.6,5.6c0.6,1.3,1.9,2.2,3.4,2.2c0.6,0,1.2-0.2,1.7-0.5
			c4.8-2.7,9.7-5.5,14.9-8.7c1.1-0.7,1.8-1.9,1.9-3.3C512.5,113.8,509.7,113,507,112.3z"/>
		<path class="st0" d="M224,109.5c-5-2.4-10-4.9-15.1-7.5c-1.8-0.9-4-0.2-4.9,1.6c-0.1,0.1-0.1,0.2-0.1,0.3c-0.9,2-0.1,4.4,1.8,5.5
			c5.1,2.7,10.3,5.2,15.3,7.7c0.5,0.2,1,0.4,1.5,0.3c1.6,0,2.9-1,3.5-2.5C226.8,112.8,226,110.5,224,109.5z"/>
		<path class="st0" d="M814.5,89.1c-4.4-4-8.8-7.9-13.2-11.5c-1.5-1.3-3.8-1.1-5.1,0.4c-0.1,0.1-0.2,0.2-0.3,0.3
			c-1.3,1.8-1,4.3,0.7,5.8c4.3,3.5,8.6,7.3,12.9,11.3c0.7,0.6,1.5,1,2.4,1c1.2,0,2.2-0.6,2.9-1.5C816.3,93.1,816.1,90.6,814.5,89.1z
			"/>
		<path class="st0" d="M571.8,74.4c-0.9-1.8-3.1-2.5-4.9-1.5c-0.1,0.1-0.2,0.1-0.3,0.2l-3.6,2.4c2.8,1.2,5.6,2.6,8.4,3.9
			C572.5,78,572.7,76,571.8,74.4z"/>
		<path class="st0" d="M787.7,66.8c-4.8-3.6-9.5-6.9-14.2-10c-1.7-1.1-3.9-0.6-5,1.1c-0.1,0.1-0.1,0.2-0.2,0.3
			c-1.1,1.9-0.5,4.4,1.3,5.7c4.5,3,9.2,6.3,13.8,9.8c0.6,0.5,1.4,0.7,2.2,0.7c1.3,0,2.5-0.7,3.1-1.8
			C789.8,70.7,789.4,68.2,787.7,66.8z"/>
		<path class="st0" d="M595.7,54.7c-4.6,2.7-9.4,5.7-14.7,9c-1.8,1.3-2.4,3.7-1.3,5.6c0.6,1.2,1.9,2,3.3,2c0.7,0,1.3-0.2,1.9-0.6
			c5.2-3.3,9.9-6.2,14.5-8.9c1.9-1.2,2.5-3.6,1.5-5.6c-0.8-1.8-3-2.6-4.8-1.8C595.9,54.5,595.8,54.6,595.7,54.7z"/>
		<path class="st0" d="M758.6,47.7c-5.2-2.9-10.3-5.5-15.4-7.8c-1.9-0.8-4.1,0-4.9,1.9c0,0.1-0.1,0.2-0.1,0.3c-0.8,2,0,4.4,2,5.4
			c4.9,2.2,9.9,4.7,14.9,7.5c0.5,0.3,1.1,0.5,1.7,0.5c1.5,0,2.8-0.9,3.4-2.2C761.2,51.3,760.5,48.9,758.6,47.7z"/>
		<path class="st0" d="M626.4,39c-5,2.1-10.3,4.6-15.6,7.3c-1.9,1.1-2.7,3.5-1.8,5.5c0.6,1.4,1.9,2.3,3.4,2.4c0.6,0,1.1-0.1,1.6-0.4
			c5.2-2.7,10.2-5,15.1-7.1c2-0.9,2.9-3.3,2.2-5.3c-0.6-2-2.7-3-4.6-2.4C626.6,38.9,626.5,39,626.4,39z"/>
		<path class="st0" d="M108.7,37.5c-4.4-3.2-9-6.6-13.8-10.1c-1.6-1.2-3.9-0.9-5.1,0.7c-0.1,0.1-0.2,0.2-0.2,0.3
			c-1.2,1.9-0.8,4.4,1,5.7c4.8,3.5,9.5,7,13.9,10.2c0.6,0.5,1.4,0.7,2.1,0.7c1.3,0,2.5-0.7,3.2-1.8
			C110.9,41.4,110.4,38.9,108.7,37.5z"/>
		<path class="st0" d="M727.1,33.6c-5.4-1.8-11-3.3-16.6-4.5c-2.1-0.4-4.1,1-4.4,3.1c0,0.1,0,0.1,0,0.2c-0.5,2.2,0.9,4.3,3,4.8
			c5.4,1.1,10.6,2.5,15.8,4.3c0.4,0.1,0.7,0.2,1.1,0.2c1.7,0,3.2-1.2,3.6-2.9C730.2,36.6,729.1,34.4,727.1,33.6z"/>
		<path class="st0" d="M659.2,28.8c-5.6,1.1-11.2,2.5-16.7,4.2c-2.1,0.8-3.2,3-2.6,5.1c0.4,1.7,1.9,2.9,3.7,3c0.4,0,0.7-0.1,1.1-0.2
			c5.2-1.6,10.5-3,15.9-4c2.1-0.5,3.5-2.6,3.1-4.8c-0.2-2.1-2.1-3.6-4.2-3.4C659.3,28.8,659.3,28.8,659.2,28.8z"/>
		<path class="st0" d="M693.4,26.7c-5.7-0.4-11.5-0.4-17.2-0.1c-2.2,0.2-3.8,2.2-3.6,4.4c0,0,0,0,0,0c0,2.2,1.8,3.9,3.9,3.9
			c0,0,0,0,0.1,0c5.4-0.3,10.8-0.3,16.2,0.1h0.3c2.1-0.1,3.8-1.8,3.8-3.9C697.2,28.9,695.6,26.9,693.4,26.7
			C693.4,26.7,693.4,26.7,693.4,26.7z"/>
		<path class="st0" d="M144.6,215c0,0.7,0.7,1,2.1,1c0.9,0,5.3-0.6,12.9-1.7c6.9-1.1,13.9-1.7,20.8-1.9c-7,1.7-13,3.5-18,5.3
			s-10.2,3.7-15.5,5.9c-5.3,2.2-9.2,3.6-11.5,4.3c-1.9,0.7-4,1-6,1.1c-5.4,0-8.1-3.2-8.1-9.5c0-16.3,4.6-27.8,13.7-34.5
			c3.7-2.7,9.6-5.9,17.8-9.6c9-4,18.3-7.5,27.7-10.5c11.2-3.5,22.5-6.4,34-8.6c12.1-2.4,24.3-3.6,36.6-3.6c11.5-0.1,23,1.5,34.1,4.9
			c10.3,3.3,19,7.9,26,13.8c7,5.9,12.5,13.3,16.1,21.7c3.9,9.1,5.8,18.9,5.6,28.8c0,16.2-5.1,32-15.5,47.3s-24,28.7-41.2,40.4
			c-17.9,12-37.5,21.4-58.1,27.7c-20.6,6.7-42.1,10.1-63.7,10.2c-3.1,0.1-6.3-0.3-9.3-1.1c-2.2-0.7-4-2.4-4.8-4.5
			c-0.9-2.3-1.4-5.6-1.4-10c-0.1-4.5,0.4-9,1.4-13.4c1.2-4.1,2.8-8.2,4.8-12c15.2-30.7,41.7-69.2,79.4-115.7
			c-8.4,0.9-16.8,2.4-25,4.4c-9.1,2.2-17.7,4.5-25.8,7.1c-8.1,2.6-15,5.1-20.6,7.5C147.5,212.2,144.6,213.9,144.6,215z M229.1,189.9
			c0,0.2,0.2,1.3,0.6,3.2c0.4,1.7,0.6,3.4,0.6,5.1c0,2.2-1.2,5.3-3.7,9.3s-7.4,11.1-14.6,21.3c-7.3,10.2-13.5,19.1-18.7,26.8
			c-5.2,7.7-11.3,17.6-18.4,29.7c-2.2,3.8-3.8,6.4-4.6,7.8s-2.2,3.6-4,6.6c-1.6,2.5-2.9,5.2-4,7.9c-0.7,1.6-1.1,3.3-1.3,5
			c0,2.5,1.5,4.3,4.5,5.3c3,1,7.3,1.5,12.9,1.5c14.4,0,29.6-2.4,45.6-7.1c15.9-4.7,31.1-11.3,45.2-19.8c14.1-8.4,25.4-18,33.8-28.7
			c8.4-10.7,12.7-21.8,12.7-33.4c0-13.2-5.3-23.5-16-30.6S273.6,189,253.2,189C244.6,189.1,236.6,189.4,229.1,189.9z"/>
		<path class="st0" d="M348.3,319.9v4.6c-2.4,2.1-5.1,4-8,5.5c-2,0.9-4.9,1.3-8.7,1.1c-6.5,7-12.3,10.6-17.3,10.6
			c-2.8,0-5.5-0.9-7.7-2.5c-2.4-1.8-4.3-4.2-5.5-6.9c-1.4-3.1-2.1-6.4-2.1-9.8c0-2.9,1.1-6.2,3.2-9.7c2.3-3.7,5.1-7.1,8.3-10
			c3.3-3,6.9-5.5,10.9-7.5c3.3-1.8,7-2.7,10.8-2.8c1.9-0.1,3.8,0.3,5.6,1c1.2,0.4,2,1.5,2,2.8c-0.2,1.2-0.8,2.4-1.7,3.2
			c1.5,0.2,2.9,0.8,3.9,1.8c0.7,0.9,1,2.4,1,4.6c-0.1,2.8-0.7,5.6-1.7,8.3c-1.1,3.3-2.7,6.5-4.6,9.4l1.4,1.2h1.1
			c0.9,0,1.7-0.2,2.5-0.6c0.8-0.4,1.5-0.8,2.2-1.2L348.3,319.9z M332.7,301.9c-4.2,2.3-7.8,4.4-10.7,6.2c-2.7,1.6-5.2,3.5-7.5,5.6
			c-1.8,1.6-3.2,3.5-4.1,5.7c-1.3,5.1-1.9,7.9-1.9,8.3c0,3,2.3,4.5,6.9,4.5c2.2,0,5.8-1.7,10.9-5.1c-0.8-2-1.3-4-1.3-6.2
			c0-3,0.7-6.1,2-8.8C328.6,308.6,330.5,305.1,332.7,301.9L332.7,301.9z"/>
		<path class="st0" d="M358.2,330.6c0.1-1.5,0.3-3,0.8-4.4c0.3-1.6,1-3.1,2-4.4l6-7.7c1.8-2.3,3.4-4.4,4.8-6
			c1.3-1.6,2.7-3.1,4.2-4.5c8.6-8.5,14.8-14.8,18.5-19c3.7-4.2,5.6-7.1,5.6-8.8c0-1.1-0.6-2.1-1.7-2.6c-1.4-0.7-2.9-1-4.4-0.9
			c-3.7,0-8.4,1.2-14,3.6c-5.6,2.4-12.2,5.5-19.7,9.4c-7.5,3.9-11.7,5.8-12.6,5.8c-1.3,0-2-0.9-2-2.7c0.2-2.2,0.7-4.4,1.6-6.5
			c0.8-3,1.5-5.4,2-7c0.5-1.7,1.4-3.2,2.5-4.5c1.7-1.8,3.7-3.2,5.8-4.4c2.7-1.6,7-3.7,12.6-6.4l0.8,2.5c4.4-1.6,8.8-3,13.4-4
			c3.5-0.8,7.1-1.3,10.8-1.4c5.8,0,10,0.9,12.4,2.7s3.7,5.7,3.7,11.8c0.1,2.8-0.4,5.6-1.6,8.2c-1.8,3.3-3.8,6.3-6.2,9.2
			c-7,9.2-12.3,15.6-15.8,19.2c-10.2,10.6-15.3,16.8-15.3,18.6c0,1,0.7,1.5,2.2,1.5c1.2,0,2.9-0.8,5.1-2.3c2.8-2.1,5.5-4.3,8-6.7
			c3.1-2.9,7.5-7.1,13-12.6c5.9-5.8,10.8-10.9,14.9-15.3c4.1-4.4,7.4-8.2,10-11.3c2.6-3.1,4-4.8,4.1-5c2.5-2.8,5.3-5.3,8.4-7.5
			c2.9-1.9,4.7-2.9,5.5-2.9c0.6,0,1.3,0.5,2.1,1.5c0.9,1.1,1.6,2.3,2.1,3.6c0.5,1,0.8,2.1,0.9,3.1c-0.5,1.2-1.1,2.3-1.8,3.3
			c-1.2,2-2.5,4.1-3.9,6.2s-3.7,5.4-6.8,9.8c-5.7,7.8-10.9,15.9-15.7,24.3c-3.6,6.6-5.4,10.9-5.4,12.9c0,0.8,0.3,1.5,0.9,2
			c0.4,0.5,1.1,0.9,1.8,0.9c0.8,0,2.3-0.6,4.4-1.8c2.5-1.4,4.8-3.1,7-5c3.3-2.8,6.3-5.9,9.2-9.1c2.9-3.4,5.7-6.9,8.2-10.6
			c2.7-3.9,5.1-7.6,7.2-11c2.1-3.4,4.3-7.1,6.4-11l-1.3-3.5c-0.2-0.7-0.3-1.4-0.3-2.1c0-0.7,1.5-2.9,4.5-6.7s4.9-5.7,5.9-5.7
			c1,0,2,0.7,2.7,2.1c0.7,1.3,1.1,2.7,1.1,4.2c0,1.5-0.8,4.6-2.3,9.3c-2,5.8-4.4,11.4-7.2,16.9c-3.5,7-7.5,13.7-12,20.1
			c-3.8,5.6-8.3,10.7-13.2,15.2c-3.9,3.6-8.1,6.8-12.7,9.4c-3.8,2.1-6.6,3.1-8.4,3.1c-2.4-0.1-4.6-1-6.5-2.5c-1.5-1.1-2.9-2.4-4-4
			c-0.8-1.1-1.3-2.4-1.5-3.8c-0.3-1.6-0.4-3.2-0.4-4.8c0-3.9,1.2-8.4,3.5-13.7c3.2-6.7,6.7-13.2,10.6-19.5c-14.7,16.2-26,28-34,35.3
			s-13.9,11-17.6,11c-2.5,0-4.5-1.3-6.3-4C359,337.3,358.1,333.9,358.2,330.6z"/>
		<path class="st0" d="M556.6,287.6c-4.9,6.6-9.1,12.6-12.4,17.9c-2.8,4.4-5.4,9-7.6,13.7c-1.7,3.8-2.5,6.6-2.5,8.4
			c0,3.4,1.6,5.1,4.9,5.1c3.5,0,11.3-4.3,23.5-12.9l-0.2,4.7c-14.1,13.1-24.5,19.7-31.1,19.7c-7.8,0-11.8-3.7-11.8-11.1
			c0-4.4,2.4-10.7,7.2-18.9s12.1-18.7,21.9-31.6c-11.5,11.4-21.1,20.8-28.9,28.2s-15.7,14.5-24,21.4c-2,1.7-3.8,3.2-5.4,4.6
			c-1.5,1.3-3.1,2.4-4.8,3.3c-1.6,0.8-3.5,1.2-5.3,1.2c-2.8,0.1-5.5-1.1-7.4-3.2c-2-2.1-2.9-5.1-2.9-8.9c0.1-3,1-6,2.4-8.6
			c2.1-4,4.5-7.9,7.3-11.4c3.3-4.3,7.3-9.1,12.1-14.3c7.7-8.5,13.1-14.4,16.1-17.9c3-3.5,4.5-5.7,4.4-6.6c0-0.7-0.4-1-1.2-1
			c-1.6,0.2-3.3,0.6-4.8,1.2c-3,1.1-6,2.4-8.9,3.9c-3.7,1.8-8.4,4.4-14.2,7.7c-4.1,2.4-8.4,4.4-12.8,6c-4.2,1.5-7.1,2.3-8.9,2.3
			c-0.9,0-1.8-0.2-2.5-0.8c-0.6-0.4-1-1.2-1-1.9c0.2-1.9,0.7-3.7,1.6-5.4c1.2-2.7,2.5-5.3,4.1-7.8c1.3-2.1,2.8-4.2,4.5-6
			c4.3-4.1,9.4-7.4,14.9-9.7c6.2-2.8,12.7-4.9,19.4-6.4c5.4-1.3,10.9-2.1,16.5-2.3c3.2,0,5.6,0.5,7,1.5c1.5,1.1,2.4,2.9,2.2,4.8
			c0,4.9-0.7,8.7-2,11.4c-2,3.6-4.3,7.1-6.8,10.4c-1.2,1.6-2.9,3.9-5.2,6.8s-4.6,5.6-6.9,8.4s-4.3,5-5.8,6.8s-3.1,3.9-4.7,6
			c-4.4,5.9-7.1,9.6-8.3,11.3c-1,1.3-1.6,2.8-1.7,4.4c0,1.6,0.8,2.4,2.5,2.4c1.6,0,3.1-0.5,4.4-1.5c1.4-1,4.4-3.3,9.1-7
			c5.3-4.2,10.5-8.5,15.5-13.1c5-4.6,9.6-8.9,13.8-13c4.1-4.1,9.4-9.5,15.7-16.1c7.1-7.5,11.6-12.2,13.6-14.1s3.6-2.8,4.8-2.8
			c1.1,0,2.1,0.8,3,2.4c1,2.1,1.4,4.5,1.3,6.8c0,1.6-0.9,3.6-2.6,6.2S562.4,280,556.6,287.6z"/>
		<path class="st0" d="M592.8,343.7l-4.7-3.1c-0.6-0.4-1-1-1.1-1.7c0-0.6,1.2-2.6,3.5-6.2c1.7-2.5,4-6,6.9-10.4
			c2.9-4.4,5.2-8,7-10.8c1.8-2.8,3.9-6.6,6.5-11.1c2.5-4.6,4.9-9.1,7-13.5c4.9-10.1,7.3-16.6,7.3-19.4c0-3.3-1.4-5-4.2-5
			c-2.1,0-5.1,1-9,2.9c-4.3,2.2-8.3,4.7-12.1,7.6c-3.9,2.9-7.4,6.2-10.5,9.9c-2.8,3.4-4.2,6.4-4.2,9.1c0,0.4,0.1,0.7,0.4,0.9
			c0.4,0.2,0.9,0.4,1.3,0.3c1.2,0,3.2-0.6,5.9-1.9c1.2-0.5,1.8-0.5,1.8,0.3s-1.9,2.6-5.7,5.7s-6.6,4.6-8.5,4.6
			c-1.6,0-3.7-1.2-6.5-3.7s-4.2-4.7-4.2-6.7c0-0.8,0.8-2.6,2.3-5.6c1.9-3.5,4-6.8,6.4-9.9c5.4-7.4,12.4-13.6,20.5-18
			c4.1-2.3,8.4-4.2,12.8-5.8c3.2-1.2,6.5-1.9,9.9-2.1c3.3-0.2,6.4,1.2,8.5,3.7c2,2.5,3,6,3,10.5c0,5.9-2.6,14.5-7.7,25.8
			c-5.1,11.3-13,24.4-23.7,39.5c0.2,0.5,0.3,1,0.5,1.5c0.2,0.5,0.3,1,0.3,1.5c0,0.2-0.1,0.4-0.2,0.5c-0.2,0.3-0.3,0.5-0.5,0.8
			c-0.1,0.2-0.3,0.4-0.4,0.5l-5.5,8.2c-0.6,1-1.2,1.4-1.9,1.4C593.8,344.2,593.2,344,592.8,343.7z"/>
		<path class="st0" d="M729.2,349.6c-0.9-0.1-1.9-0.4-2.7-0.9c-1.2-0.6-2.9-1.6-5.1-3c-2.2-1.4-4.8-3-7.6-4.8L673,315.9l-12.1,14.5
			c0.1,1-0.1,1.9-0.5,2.8c-0.6,1-1.4,1.8-2.3,2.6c-2.2,2.2-4.6,4.2-7.1,6c-1.5,1.2-3.3,1.9-5.2,2.1c-0.8,0-1.5-0.3-2-0.9
			c-0.5-0.6-0.8-1.3-0.8-2.1c0-1.1,0.7-2.6,2.1-4.4l22.1-25c-1.3-1.7-1.9-3.7-2-5.8c0-1.9,0.6-3.7,1.8-5.1c1.2-1.4,2.6-2.6,4.3-3.4
			c1.6-0.9,6.1-3.1,13.3-6.6c10.4-12.5,15.5-19.5,15.5-21c0-1-0.7-1.5-2-1.5s-4.4,0.7-9,2.2S678.5,274,671,277s-16.5,6.9-26.9,11.7
			c-0.9,0.4-1.9,0.6-2.9,0.5c-1,0-2-0.5-2.8-1.2c-0.8-0.7-1.2-1.8-1.1-2.9c0-0.4,0.1-0.9,0.3-1.3c0.2-0.5,0.5-1.3,0.9-2.4
			s0.8-2,1.1-2.9c0.1-0.3,0.3-1.3,0.7-3c0.4-1.6,1-3.2,1.9-4.6c1.3-1.8,2.9-3.3,4.6-4.6c2.9-2.1,6.1-3.9,9.4-5.4
			c0.7-0.4,1.4-0.6,2.1-0.8c0.7-0.1,1,0,1,0.5c-0.7,0.7-1.4,1.2-2.2,1.7c-1.9,1.4-3.5,3-4.9,4.8c14.7-4.7,25.5-8,32.5-9.9
			c7-1.9,12.6-2.9,16.8-2.9c2.3,0,4.3,1.4,5.8,4.3c1.5,2.9,2.3,4.7,2.3,5.6c-0.1,1.6-0.7,3.1-1.7,4.3l-12.1,16.5
			c9.6-4.3,17-7.7,22.3-10.3l17.3-8.3c6.2-3,10.2-4.9,11.8-5.6c1-0.5,2.1-0.9,3.2-1.1c1.2,0,1.7,0.5,1.7,1.4c0,0.5-0.9,2-2.6,4.5
			c-1.7,2.4-3.6,4.6-5.8,6.6c-2.1,1.9-3.9,2.9-5.3,2.9c-0.4,0-0.9-0.1-1.3-0.3l-1.4-0.4c-6.8,3.2-15.1,7-24.9,11.4
			c-9.8,4.4-17.6,7.8-23.3,10.3l-6.5,8.9l38.3,23.6c2.7,1.6,5.2,3.3,7.7,5.1c1.5,1.1,2.7,2.6,3.5,4.2c0.8,1.8,1.2,3.7,1.2,5.7
			C731.8,347.7,730.9,349.6,729.2,349.6z"/>
		<path class="st0" d="M771.1,343.7l-4.7-3.1c-0.6-0.4-0.9-1-1-1.7c0-0.6,1.2-2.7,3.5-6.2c1.7-2.5,4-6,6.9-10.4
			c2.9-4.4,5.2-8,7-10.8c1.8-2.8,3.9-6.6,6.5-11.1c2.5-4.6,4.9-9.1,7-13.5c4.9-10.1,7.3-16.6,7.3-19.4c0-3.3-1.4-5-4.2-5
			c-2.1,0-5.1,1-9,2.9c-4.3,2.2-8.3,4.7-12.1,7.6c-3.9,2.9-7.4,6.2-10.5,9.9c-2.8,3.4-4.2,6.4-4.2,9.1c0,0.4,0.1,0.7,0.4,0.9
			c0.4,0.2,0.9,0.4,1.4,0.3c1.2,0,3.2-0.6,5.9-1.9c1.2-0.5,1.8-0.5,1.8,0.3s-1.9,2.6-5.7,5.7s-6.6,4.6-8.5,4.6
			c-1.6,0-3.7-1.2-6.5-3.7s-4.2-4.7-4.2-6.7c0-0.8,0.8-2.6,2.3-5.6c1.9-3.5,4-6.8,6.4-9.9c5.4-7.4,12.4-13.6,20.5-18
			c4.1-2.3,8.4-4.2,12.8-5.8c3.2-1.2,6.5-1.9,9.9-2.1c3.3-0.2,6.4,1.2,8.5,3.7c2,2.5,3,6,3,10.5c0,5.9-2.6,14.5-7.7,25.8
			c-5.1,11.3-13,24.4-23.7,39.5c0.2,0.5,0.3,1,0.5,1.5c0.2,0.5,0.3,1,0.3,1.5c0,0.2-0.1,0.4-0.2,0.5c-0.2,0.3-0.3,0.5-0.5,0.8
			c-0.1,0.2-0.3,0.4-0.4,0.5l-5.5,8.2c-0.6,1-1.2,1.4-1.9,1.4C772,344.2,771.5,344,771.1,343.7z"/>
		<path class="st0" d="M824.9,118.8c0,0,31.5,38.8,16.9,54c-33.4,34.9-131.4-35.6-243.2-81.9c-9.1-3.8-18.3-7.5-27.5-11.3
			c-0.2,0.2-0.4,0.3-0.6,0.5c-4.8,3.2-9.6,6.5-14.2,9.6c-0.6,0.4-1.3,0.6-2,0.6c-1.3,0-2.6-0.8-3.2-1.9c-1.1-1.9-0.6-4.4,1.2-5.7
			c3.2-2.2,6.5-4.4,9.8-6.7C406,13.2,234.6-39.7,110.4,41c0,0.8-0.2,1.6-0.6,2.3c-0.7,1.1-1.9,1.8-3.2,1.8c-0.6,0-1.2-0.2-1.7-0.4
			c-14,9.7-27,20.7-38.7,33c-96.3,100.2-96.2,291,58.3,380.6c50.7,29.4,120.3,58.4,223.2,43.7c74-10.6,161.6-65,161.6-65
			s-108.4,51.2-218.6,40.1h0.1c0,0-170.8,1.3-217.2-137.7c-31.1-92.9,17.5-156,17.5-156s-31.3,105.5,14.7,184
			c13.8,23.5,34.3,42.5,56.8,57.6c-14.5-12.5-27.3-26.7-38.2-42.5c-45.8-65.8-43.9-182.3,11-239.9c16.3-17.1,35.7-31.1,57.1-41.2
			h-0.1c-0.6,0-1.2-0.2-1.8-0.5c-4.8-2.7-9.8-5.7-14.8-8.7c-1.9-1.2-2.5-3.6-1.5-5.6c0.8-1.8,3-2.6,4.8-1.8c0.1,0.1,0.2,0.1,0.3,0.2
			c4.9,3,9.9,5.8,14.6,8.6c1.9,1.2,2.6,3.6,1.6,5.6c-0.2,0.4-0.4,0.7-0.6,1c95.2-43.6,221.8-14.5,312,11.9l2.5-1.5
			c1.7-1,4-0.5,5,1.2c0.1,0.1,0.1,0.2,0.2,0.3c0.4,0.7,0.5,1.5,0.5,2.3c26.5,7.9,49.6,15.4,67.2,20.3
			c134.8,37.6,229.3,95.5,270.3,57.3C881.5,165.5,824.9,118.8,824.9,118.8z M137.8,63.1c-0.7,1.2-1.9,1.9-3.2,1.9
			c-0.7,0-1.4-0.2-2-0.6c-4.5-3.1-9.2-6.4-14.1-9.9c-1.8-1.3-2.3-3.8-1.1-5.7c1-1.7,3.2-2.4,4.9-1.4c0.1,0.1,0.2,0.1,0.3,0.2
			c4.8,3.5,9.6,6.8,14,9.8C138.4,58.7,138.9,61.2,137.8,63.1z M166.3,82c-0.6,1.2-1.9,2-3.3,2c-0.7,0-1.3-0.2-1.9-0.6
			c-4.6-3-9.5-6.1-14.4-9.4c-1.8-1.3-2.3-3.7-1.2-5.7c0.9-1.8,3.1-2.5,4.9-1.6c0.1,0.1,0.2,0.1,0.3,0.2c4.9,3.3,9.7,6.4,14.3,9.3
			C166.9,77.6,167.4,80,166.3,82z M542.2,99.3c-5.4,3.7-10,6.7-14.3,9.5c-0.6,0.4-1.2,0.6-1.9,0.6c-1.4,0-2.6-0.8-3.3-2
			c-1.1-1.9-0.5-4.4,1.3-5.7c4.3-2.8,8.9-5.8,14.2-9.4c1.7-1.1,3.9-0.7,5,1c0.1,0.1,0.1,0.2,0.2,0.3C544.5,95.6,544,98,542.2,99.3z"
			/>
	</g>
</g>
</svg>
