<svg xmlns="http://www.w3.org/2000/svg" viewBox="0 0 166.88 166.88"><defs><style>.cls-1{fill:#d2d2d2;}</style></defs><g id="圖層_2" data-name="圖層 2"><g id="Layer_1" data-name="Layer 1"><circle class="cls-1" cx="2.14" cy="53.49" r="2.14"/><circle class="cls-1" cx="53.49" cy="53.49" r="2.14"/><circle class="cls-1" cx="44.93" cy="53.49" r="2.14"/><circle class="cls-1" cx="36.37" cy="53.49" r="2.14"/><circle class="cls-1" cx="27.81" cy="53.49" r="2.14"/><circle class="cls-1" cx="19.26" cy="53.49" r="2.14"/><circle class="cls-1" cx="10.7" cy="53.49" r="2.14"/><circle class="cls-1" cx="2.14" cy="44.93" r="2.14"/><circle class="cls-1" cx="53.49" cy="44.93" r="2.14"/><circle class="cls-1" cx="44.93" cy="44.93" r="2.14"/><circle class="cls-1" cx="36.37" cy="44.93" r="2.14"/><circle class="cls-1" cx="27.81" cy="44.93" r="2.14"/><circle class="cls-1" cx="19.26" cy="44.93" r="2.14"/><circle class="cls-1" cx="10.7" cy="44.93" r="2.14"/><circle class="cls-1" cx="2.14" cy="36.37" r="2.14"/><circle class="cls-1" cx="53.49" cy="36.37" r="2.14"/><circle class="cls-1" cx="44.93" cy="36.37" r="2.14"/><circle class="cls-1" cx="36.37" cy="36.37" r="2.14"/><circle class="cls-1" cx="27.81" cy="36.37" r="2.14"/><circle class="cls-1" cx="19.26" cy="36.37" r="2.14"/><circle class="cls-1" cx="10.7" cy="36.37" r="2.14"/><circle class="cls-1" cx="2.14" cy="27.81" r="2.14"/><circle class="cls-1" cx="53.49" cy="27.81" r="2.14"/><circle class="cls-1" cx="44.93" cy="27.81" r="2.14"/><circle class="cls-1" cx="36.37" cy="27.81" r="2.14"/><circle class="cls-1" cx="27.81" cy="27.81" r="2.14"/><circle class="cls-1" cx="19.26" cy="27.81" r="2.14"/><circle class="cls-1" cx="10.7" cy="27.81" r="2.14"/><circle class="cls-1" cx="2.14" cy="19.26" r="2.14"/><circle class="cls-1" cx="53.49" cy="19.26" r="2.14"/><circle class="cls-1" cx="44.93" cy="19.26" r="2.14"/><circle class="cls-1" cx="36.37" cy="19.26" r="2.14"/><circle class="cls-1" cx="27.81" cy="19.26" r="2.14"/><circle class="cls-1" cx="19.26" cy="19.26" r="2.14"/><circle class="cls-1" cx="10.7" cy="19.26" r="2.14"/><circle class="cls-1" cx="2.14" cy="10.7" r="2.14"/><circle class="cls-1" cx="53.49" cy="10.7" r="2.14"/><circle class="cls-1" cx="44.93" cy="10.7" r="2.14"/><circle class="cls-1" cx="36.37" cy="10.7" r="2.14"/><circle class="cls-1" cx="27.81" cy="10.7" r="2.14"/><circle class="cls-1" cx="19.26" cy="10.7" r="2.14"/><circle class="cls-1" cx="10.7" cy="10.7" r="2.14"/><circle class="cls-1" cx="2.14" cy="2.14" r="2.14"/><circle class="cls-1" cx="53.49" cy="2.14" r="2.14"/><circle class="cls-1" cx="44.93" cy="2.14" r="2.14"/><circle class="cls-1" cx="36.37" cy="2.14" r="2.14"/><circle class="cls-1" cx="79.16" cy="53.49" r="2.14"/><circle class="cls-1" cx="70.6" cy="53.49" r="2.14"/><circle class="cls-1" cx="62.05" cy="53.49" r="2.14"/><circle class="cls-1" cx="79.16" cy="44.93" r="2.14"/><circle class="cls-1" cx="70.6" cy="44.93" r="2.14"/><circle class="cls-1" cx="62.05" cy="44.93" r="2.14"/><circle class="cls-1" cx="79.16" cy="36.37" r="2.14"/><circle class="cls-1" cx="70.6" cy="36.37" r="2.14"/><circle class="cls-1" cx="62.05" cy="36.37" r="2.14"/><circle class="cls-1" cx="2.14" cy="79.16" r="2.14"/><circle class="cls-1" cx="53.49" cy="79.16" r="2.14"/><circle class="cls-1" cx="44.93" cy="79.16" r="2.14"/><circle class="cls-1" cx="36.37" cy="79.16" r="2.14"/><circle class="cls-1" cx="27.81" cy="79.16" r="2.14"/><circle class="cls-1" cx="19.26" cy="79.16" r="2.14"/><circle class="cls-1" cx="10.7" cy="79.16" r="2.14"/><circle class="cls-1" cx="2.14" cy="70.6" r="2.14"/><circle class="cls-1" cx="53.49" cy="70.6" r="2.14"/><circle class="cls-1" cx="44.93" cy="70.6" r="2.14"/><circle class="cls-1" cx="36.37" cy="70.6" r="2.14"/><circle class="cls-1" cx="27.81" cy="70.6" r="2.14"/><circle class="cls-1" cx="19.26" cy="70.6" r="2.14"/><circle class="cls-1" cx="10.7" cy="70.6" r="2.14"/><circle class="cls-1" cx="2.14" cy="62.05" r="2.14"/><circle class="cls-1" cx="53.49" cy="62.05" r="2.14"/><circle class="cls-1" cx="44.93" cy="62.05" r="2.14"/><circle class="cls-1" cx="36.37" cy="62.05" r="2.14"/><circle class="cls-1" cx="27.81" cy="62.05" r="2.14"/><circle class="cls-1" cx="19.26" cy="62.05" r="2.14"/><circle class="cls-1" cx="10.7" cy="62.05" r="2.14"/><circle class="cls-1" cx="79.16" cy="79.16" r="2.14"/><circle class="cls-1" cx="70.6" cy="79.16" r="2.14"/><circle class="cls-1" cx="62.05" cy="79.16" r="2.14"/><circle class="cls-1" cx="79.16" cy="70.6" r="2.14"/><circle class="cls-1" cx="70.6" cy="70.6" r="2.14"/><circle class="cls-1" cx="62.05" cy="70.6" r="2.14"/><circle class="cls-1" cx="79.16" cy="62.05" r="2.14"/><circle class="cls-1" cx="70.6" cy="62.05" r="2.14"/><circle class="cls-1" cx="62.05" cy="62.05" r="2.14"/><circle class="cls-1" cx="79.16" cy="27.81" r="2.14"/><circle class="cls-1" cx="70.6" cy="27.81" r="2.14"/><circle class="cls-1" cx="62.05" cy="27.81" r="2.14"/><circle class="cls-1" cx="79.16" cy="19.26" r="2.14"/><circle class="cls-1" cx="70.6" cy="19.26" r="2.14"/><circle class="cls-1" cx="62.05" cy="19.26" r="2.14"/><circle class="cls-1" cx="79.16" cy="10.7" r="2.14"/><circle class="cls-1" cx="70.6" cy="10.7" r="2.14"/><circle class="cls-1" cx="62.05" cy="10.7" r="2.14"/><circle class="cls-1" cx="79.16" cy="2.14" r="2.14"/><circle class="cls-1" cx="70.6" cy="2.14" r="2.14"/><circle class="cls-1" cx="62.05" cy="2.14" r="2.14"/><circle class="cls-1" cx="27.81" cy="2.14" r="2.14"/><circle class="cls-1" cx="19.26" cy="2.14" r="2.14"/><circle class="cls-1" cx="10.7" cy="2.14" r="2.14"/><circle class="cls-1" cx="87.72" cy="53.49" r="2.14"/><circle class="cls-1" cx="139.07" cy="53.49" r="2.14"/><circle class="cls-1" cx="130.51" cy="53.49" r="2.14"/><circle class="cls-1" cx="121.95" cy="53.49" r="2.14"/><circle class="cls-1" cx="113.39" cy="53.49" r="2.14"/><circle class="cls-1" cx="104.84" cy="53.49" r="2.14"/><circle class="cls-1" cx="96.28" cy="53.49" r="2.14"/><circle class="cls-1" cx="87.72" cy="44.93" r="2.14"/><circle class="cls-1" cx="139.07" cy="44.93" r="2.14"/><circle class="cls-1" cx="130.51" cy="44.93" r="2.14"/><circle class="cls-1" cx="121.95" cy="44.93" r="2.14"/><circle class="cls-1" cx="113.39" cy="44.93" r="2.14"/><circle class="cls-1" cx="104.84" cy="44.93" r="2.14"/><circle class="cls-1" cx="96.28" cy="44.93" r="2.14"/><circle class="cls-1" cx="87.72" cy="36.37" r="2.14"/><circle class="cls-1" cx="139.07" cy="36.37" r="2.14"/><circle class="cls-1" cx="130.51" cy="36.37" r="2.14"/><circle class="cls-1" cx="121.95" cy="36.37" r="2.14"/><circle class="cls-1" cx="113.39" cy="36.37" r="2.14"/><circle class="cls-1" cx="104.84" cy="36.37" r="2.14"/><circle class="cls-1" cx="96.28" cy="36.37" r="2.14"/><circle class="cls-1" cx="87.72" cy="27.81" r="2.14"/><circle class="cls-1" cx="139.07" cy="27.81" r="2.14"/><circle class="cls-1" cx="130.51" cy="27.81" r="2.14"/><circle class="cls-1" cx="121.95" cy="27.81" r="2.14"/><circle class="cls-1" cx="113.39" cy="27.81" r="2.14"/><circle class="cls-1" cx="104.84" cy="27.81" r="2.14"/><circle class="cls-1" cx="96.28" cy="27.81" r="2.14"/><circle class="cls-1" cx="87.72" cy="19.26" r="2.14"/><circle class="cls-1" cx="139.07" cy="19.26" r="2.14"/><circle class="cls-1" cx="130.51" cy="19.26" r="2.14"/><circle class="cls-1" cx="121.95" cy="19.26" r="2.14"/><circle class="cls-1" cx="113.39" cy="19.26" r="2.14"/><circle class="cls-1" cx="104.84" cy="19.26" r="2.14"/><circle class="cls-1" cx="96.28" cy="19.26" r="2.14"/><circle class="cls-1" cx="87.72" cy="10.7" r="2.14"/><circle class="cls-1" cx="139.07" cy="10.7" r="2.14"/><circle class="cls-1" cx="130.51" cy="10.7" r="2.14"/><circle class="cls-1" cx="121.95" cy="10.7" r="2.14"/><circle class="cls-1" cx="113.39" cy="10.7" r="2.14"/><circle class="cls-1" cx="104.84" cy="10.7" r="2.14"/><circle class="cls-1" cx="96.28" cy="10.7" r="2.14"/><circle class="cls-1" cx="87.72" cy="2.14" r="2.14"/><circle class="cls-1" cx="139.07" cy="2.14" r="2.14"/><circle class="cls-1" cx="130.51" cy="2.14" r="2.14"/><circle class="cls-1" cx="121.95" cy="2.14" r="2.14"/><circle class="cls-1" cx="164.74" cy="53.49" r="2.14"/><circle class="cls-1" cx="156.18" cy="53.49" r="2.14"/><circle class="cls-1" cx="147.63" cy="53.49" r="2.14"/><circle class="cls-1" cx="164.74" cy="44.93" r="2.14"/><circle class="cls-1" cx="156.18" cy="44.93" r="2.14"/><circle class="cls-1" cx="147.63" cy="44.93" r="2.14"/><circle class="cls-1" cx="164.74" cy="36.37" r="2.14"/><circle class="cls-1" cx="156.18" cy="36.37" r="2.14"/><circle class="cls-1" cx="147.63" cy="36.37" r="2.14"/><circle class="cls-1" cx="87.72" cy="79.16" r="2.14"/><circle class="cls-1" cx="139.07" cy="79.16" r="2.14"/><circle class="cls-1" cx="130.51" cy="79.16" r="2.14"/><circle class="cls-1" cx="121.95" cy="79.16" r="2.14"/><circle class="cls-1" cx="113.39" cy="79.16" r="2.14"/><circle class="cls-1" cx="104.84" cy="79.16" r="2.14"/><circle class="cls-1" cx="96.28" cy="79.16" r="2.14"/><circle class="cls-1" cx="87.72" cy="70.6" r="2.14"/><circle class="cls-1" cx="139.07" cy="70.6" r="2.14"/><circle class="cls-1" cx="130.51" cy="70.6" r="2.14"/><circle class="cls-1" cx="121.95" cy="70.6" r="2.14"/><circle class="cls-1" cx="113.39" cy="70.6" r="2.14"/><circle class="cls-1" cx="104.84" cy="70.6" r="2.14"/><circle class="cls-1" cx="96.28" cy="70.6" r="2.14"/><circle class="cls-1" cx="87.72" cy="62.05" r="2.14"/><circle class="cls-1" cx="139.07" cy="62.05" r="2.14"/><circle class="cls-1" cx="130.51" cy="62.05" r="2.14"/><circle class="cls-1" cx="121.95" cy="62.05" r="2.14"/><circle class="cls-1" cx="113.39" cy="62.05" r="2.14"/><circle class="cls-1" cx="104.84" cy="62.05" r="2.14"/><circle class="cls-1" cx="96.28" cy="62.05" r="2.14"/><circle class="cls-1" cx="164.74" cy="79.16" r="2.14"/><circle class="cls-1" cx="156.18" cy="79.16" r="2.14"/><circle class="cls-1" cx="147.63" cy="79.16" r="2.14"/><circle class="cls-1" cx="164.74" cy="70.6" r="2.14"/><circle class="cls-1" cx="156.18" cy="70.6" r="2.14"/><circle class="cls-1" cx="147.63" cy="70.6" r="2.14"/><circle class="cls-1" cx="164.74" cy="62.05" r="2.14"/><circle class="cls-1" cx="156.18" cy="62.05" r="2.14"/><circle class="cls-1" cx="147.63" cy="62.05" r="2.14"/><circle class="cls-1" cx="164.74" cy="27.81" r="2.14"/><circle class="cls-1" cx="156.18" cy="27.81" r="2.14"/><circle class="cls-1" cx="147.63" cy="27.81" r="2.14"/><circle class="cls-1" cx="164.74" cy="19.26" r="2.14"/><circle class="cls-1" cx="156.18" cy="19.26" r="2.14"/><circle class="cls-1" cx="147.63" cy="19.26" r="2.14"/><circle class="cls-1" cx="164.74" cy="10.7" r="2.14"/><circle class="cls-1" cx="156.18" cy="10.7" r="2.14"/><circle class="cls-1" cx="147.63" cy="10.7" r="2.14"/><circle class="cls-1" cx="164.74" cy="2.14" r="2.14"/><circle class="cls-1" cx="156.18" cy="2.14" r="2.14"/><circle class="cls-1" cx="147.63" cy="2.14" r="2.14"/><circle class="cls-1" cx="113.39" cy="2.14" r="2.14"/><circle class="cls-1" cx="104.84" cy="2.14" r="2.14"/><circle class="cls-1" cx="96.28" cy="2.14" r="2.14"/><circle class="cls-1" cx="2.14" cy="139.07" r="2.14"/><circle class="cls-1" cx="53.49" cy="139.07" r="2.14"/><circle class="cls-1" cx="44.93" cy="139.07" r="2.14"/><circle class="cls-1" cx="36.37" cy="139.07" r="2.14"/><circle class="cls-1" cx="27.81" cy="139.07" r="2.14"/><circle class="cls-1" cx="19.26" cy="139.07" r="2.14"/><circle class="cls-1" cx="10.7" cy="139.07" r="2.14"/><circle class="cls-1" cx="2.14" cy="130.51" r="2.14"/><circle class="cls-1" cx="53.49" cy="130.51" r="2.14"/><circle class="cls-1" cx="44.93" cy="130.51" r="2.14"/><circle class="cls-1" cx="36.37" cy="130.51" r="2.14"/><circle class="cls-1" cx="27.81" cy="130.51" r="2.14"/><circle class="cls-1" cx="19.26" cy="130.51" r="2.14"/><circle class="cls-1" cx="10.7" cy="130.51" r="2.14"/><circle class="cls-1" cx="2.14" cy="121.95" r="2.14"/><circle class="cls-1" cx="53.49" cy="121.95" r="2.14"/><circle class="cls-1" cx="44.93" cy="121.95" r="2.14"/><circle class="cls-1" cx="36.37" cy="121.95" r="2.14"/><circle class="cls-1" cx="27.81" cy="121.95" r="2.14"/><circle class="cls-1" cx="19.26" cy="121.95" r="2.14"/><circle class="cls-1" cx="10.7" cy="121.95" r="2.14"/><circle class="cls-1" cx="2.14" cy="113.39" r="2.14"/><circle class="cls-1" cx="53.49" cy="113.39" r="2.14"/><circle class="cls-1" cx="44.93" cy="113.39" r="2.14"/><circle class="cls-1" cx="36.37" cy="113.39" r="2.14"/><circle class="cls-1" cx="27.81" cy="113.39" r="2.14"/><circle class="cls-1" cx="19.26" cy="113.39" r="2.14"/><circle class="cls-1" cx="10.7" cy="113.39" r="2.14"/><circle class="cls-1" cx="2.14" cy="104.84" r="2.14"/><circle class="cls-1" cx="53.49" cy="104.84" r="2.14"/><circle class="cls-1" cx="44.93" cy="104.84" r="2.14"/><circle class="cls-1" cx="36.37" cy="104.84" r="2.14"/><circle class="cls-1" cx="27.81" cy="104.84" r="2.14"/><circle class="cls-1" cx="19.26" cy="104.84" r="2.14"/><circle class="cls-1" cx="10.7" cy="104.84" r="2.14"/><circle class="cls-1" cx="2.14" cy="96.28" r="2.14"/><circle class="cls-1" cx="53.49" cy="96.28" r="2.14"/><circle class="cls-1" cx="44.93" cy="96.28" r="2.14"/><circle class="cls-1" cx="36.37" cy="96.28" r="2.14"/><circle class="cls-1" cx="27.81" cy="96.28" r="2.14"/><circle class="cls-1" cx="19.26" cy="96.28" r="2.14"/><circle class="cls-1" cx="10.7" cy="96.28" r="2.14"/><circle class="cls-1" cx="2.14" cy="87.72" r="2.14"/><circle class="cls-1" cx="53.49" cy="87.72" r="2.14"/><circle class="cls-1" cx="44.93" cy="87.72" r="2.14"/><circle class="cls-1" cx="36.37" cy="87.72" r="2.14"/><circle class="cls-1" cx="79.16" cy="139.07" r="2.14"/><circle class="cls-1" cx="70.6" cy="139.07" r="2.14"/><circle class="cls-1" cx="62.05" cy="139.07" r="2.14"/><circle class="cls-1" cx="79.16" cy="130.51" r="2.14"/><circle class="cls-1" cx="70.6" cy="130.51" r="2.14"/><circle class="cls-1" cx="62.05" cy="130.51" r="2.14"/><circle class="cls-1" cx="79.16" cy="121.95" r="2.14"/><circle class="cls-1" cx="70.6" cy="121.95" r="2.14"/><circle class="cls-1" cx="62.05" cy="121.95" r="2.14"/><circle class="cls-1" cx="2.14" cy="164.74" r="2.14"/><circle class="cls-1" cx="53.49" cy="164.74" r="2.14"/><circle class="cls-1" cx="44.93" cy="164.74" r="2.14"/><circle class="cls-1" cx="36.37" cy="164.74" r="2.14"/><circle class="cls-1" cx="27.81" cy="164.74" r="2.14"/><circle class="cls-1" cx="19.26" cy="164.74" r="2.14"/><circle class="cls-1" cx="10.7" cy="164.74" r="2.14"/><circle class="cls-1" cx="2.14" cy="156.18" r="2.14"/><circle class="cls-1" cx="53.49" cy="156.18" r="2.14"/><circle class="cls-1" cx="44.93" cy="156.18" r="2.14"/><circle class="cls-1" cx="36.37" cy="156.18" r="2.14"/><circle class="cls-1" cx="27.81" cy="156.18" r="2.14"/><circle class="cls-1" cx="19.26" cy="156.18" r="2.14"/><circle class="cls-1" cx="10.7" cy="156.18" r="2.14"/><circle class="cls-1" cx="2.14" cy="147.63" r="2.14"/><circle class="cls-1" cx="53.49" cy="147.63" r="2.14"/><circle class="cls-1" cx="44.93" cy="147.63" r="2.14"/><circle class="cls-1" cx="36.37" cy="147.63" r="2.14"/><circle class="cls-1" cx="27.81" cy="147.63" r="2.14"/><circle class="cls-1" cx="19.26" cy="147.63" r="2.14"/><circle class="cls-1" cx="10.7" cy="147.63" r="2.14"/><circle class="cls-1" cx="79.16" cy="164.74" r="2.14"/><circle class="cls-1" cx="70.6" cy="164.74" r="2.14"/><circle class="cls-1" cx="62.05" cy="164.74" r="2.14"/><circle class="cls-1" cx="79.16" cy="156.18" r="2.14"/><circle class="cls-1" cx="70.6" cy="156.18" r="2.14"/><circle class="cls-1" cx="62.05" cy="156.18" r="2.14"/><circle class="cls-1" cx="79.16" cy="147.63" r="2.14"/><circle class="cls-1" cx="70.6" cy="147.63" r="2.14"/><circle class="cls-1" cx="62.05" cy="147.63" r="2.14"/><circle class="cls-1" cx="79.16" cy="113.39" r="2.14"/><circle class="cls-1" cx="70.6" cy="113.39" r="2.14"/><circle class="cls-1" cx="62.05" cy="113.39" r="2.14"/><circle class="cls-1" cx="79.16" cy="104.84" r="2.14"/><circle class="cls-1" cx="70.6" cy="104.84" r="2.14"/><circle class="cls-1" cx="62.05" cy="104.84" r="2.14"/><circle class="cls-1" cx="79.16" cy="96.28" r="2.14"/><circle class="cls-1" cx="70.6" cy="96.28" r="2.14"/><circle class="cls-1" cx="62.05" cy="96.28" r="2.14"/><circle class="cls-1" cx="79.16" cy="87.72" r="2.14"/><circle class="cls-1" cx="70.6" cy="87.72" r="2.14"/><circle class="cls-1" cx="62.05" cy="87.72" r="2.14"/><circle class="cls-1" cx="27.81" cy="87.72" r="2.14"/><circle class="cls-1" cx="19.26" cy="87.72" r="2.14"/><circle class="cls-1" cx="10.7" cy="87.72" r="2.14"/><circle class="cls-1" cx="87.72" cy="139.07" r="2.14"/><circle class="cls-1" cx="139.07" cy="139.07" r="2.14"/><circle class="cls-1" cx="130.51" cy="139.07" r="2.14"/><circle class="cls-1" cx="121.95" cy="139.07" r="2.14"/><circle class="cls-1" cx="113.39" cy="139.07" r="2.14"/><circle class="cls-1" cx="104.84" cy="139.07" r="2.14"/><circle class="cls-1" cx="96.28" cy="139.07" r="2.14"/><circle class="cls-1" cx="87.72" cy="130.51" r="2.14"/><circle class="cls-1" cx="139.07" cy="130.51" r="2.14"/><circle class="cls-1" cx="130.51" cy="130.51" r="2.14"/><circle class="cls-1" cx="121.95" cy="130.51" r="2.14"/><circle class="cls-1" cx="113.39" cy="130.51" r="2.14"/><circle class="cls-1" cx="104.84" cy="130.51" r="2.14"/><circle class="cls-1" cx="96.28" cy="130.51" r="2.14"/><circle class="cls-1" cx="87.72" cy="121.95" r="2.14"/><circle class="cls-1" cx="139.07" cy="121.95" r="2.14"/><circle class="cls-1" cx="130.51" cy="121.95" r="2.14"/><circle class="cls-1" cx="121.95" cy="121.95" r="2.14"/><circle class="cls-1" cx="113.39" cy="121.95" r="2.14"/><circle class="cls-1" cx="104.84" cy="121.95" r="2.14"/><circle class="cls-1" cx="96.28" cy="121.95" r="2.14"/><circle class="cls-1" cx="87.72" cy="113.39" r="2.14"/><circle class="cls-1" cx="139.07" cy="113.39" r="2.14"/><circle class="cls-1" cx="130.51" cy="113.39" r="2.14"/><circle class="cls-1" cx="121.95" cy="113.39" r="2.14"/><circle class="cls-1" cx="113.39" cy="113.39" r="2.14"/><circle class="cls-1" cx="104.84" cy="113.39" r="2.14"/><circle class="cls-1" cx="96.28" cy="113.39" r="2.14"/><circle class="cls-1" cx="87.72" cy="104.84" r="2.14"/><circle class="cls-1" cx="139.07" cy="104.84" r="2.14"/><circle class="cls-1" cx="130.51" cy="104.84" r="2.14"/><circle class="cls-1" cx="121.95" cy="104.84" r="2.14"/><circle class="cls-1" cx="113.39" cy="104.84" r="2.14"/><circle class="cls-1" cx="104.84" cy="104.84" r="2.14"/><circle class="cls-1" cx="96.28" cy="104.84" r="2.14"/><circle class="cls-1" cx="87.72" cy="96.28" r="2.14"/><circle class="cls-1" cx="139.07" cy="96.28" r="2.14"/><circle class="cls-1" cx="130.51" cy="96.28" r="2.14"/><circle class="cls-1" cx="121.95" cy="96.28" r="2.14"/><circle class="cls-1" cx="113.39" cy="96.28" r="2.14"/><circle class="cls-1" cx="104.84" cy="96.28" r="2.14"/><circle class="cls-1" cx="96.28" cy="96.28" r="2.14"/><circle class="cls-1" cx="87.72" cy="87.72" r="2.14"/><circle class="cls-1" cx="139.07" cy="87.72" r="2.14"/><circle class="cls-1" cx="130.51" cy="87.72" r="2.14"/><circle class="cls-1" cx="121.95" cy="87.72" r="2.14"/><circle class="cls-1" cx="164.74" cy="139.07" r="2.14"/><circle class="cls-1" cx="156.18" cy="139.07" r="2.14"/><circle class="cls-1" cx="147.63" cy="139.07" r="2.14"/><circle class="cls-1" cx="164.74" cy="130.51" r="2.14"/><circle class="cls-1" cx="156.18" cy="130.51" r="2.14"/><circle class="cls-1" cx="147.63" cy="130.51" r="2.14"/><circle class="cls-1" cx="164.74" cy="121.95" r="2.14"/><circle class="cls-1" cx="156.18" cy="121.95" r="2.14"/><circle class="cls-1" cx="147.63" cy="121.95" r="2.14"/><circle class="cls-1" cx="87.72" cy="164.74" r="2.14"/><circle class="cls-1" cx="139.07" cy="164.74" r="2.14"/><circle class="cls-1" cx="130.51" cy="164.74" r="2.14"/><circle class="cls-1" cx="121.95" cy="164.74" r="2.14"/><circle class="cls-1" cx="113.39" cy="164.74" r="2.14"/><circle class="cls-1" cx="104.84" cy="164.74" r="2.14"/><circle class="cls-1" cx="96.28" cy="164.74" r="2.14"/><circle class="cls-1" cx="87.72" cy="156.18" r="2.14"/><circle class="cls-1" cx="139.07" cy="156.18" r="2.14"/><circle class="cls-1" cx="130.51" cy="156.18" r="2.14"/><circle class="cls-1" cx="121.95" cy="156.18" r="2.14"/><circle class="cls-1" cx="113.39" cy="156.18" r="2.14"/><circle class="cls-1" cx="104.84" cy="156.18" r="2.14"/><circle class="cls-1" cx="96.28" cy="156.18" r="2.14"/><circle class="cls-1" cx="87.72" cy="147.63" r="2.14"/><circle class="cls-1" cx="139.07" cy="147.63" r="2.14"/><circle class="cls-1" cx="130.51" cy="147.63" r="2.14"/><circle class="cls-1" cx="121.95" cy="147.63" r="2.14"/><circle class="cls-1" cx="113.39" cy="147.63" r="2.14"/><circle class="cls-1" cx="104.84" cy="147.63" r="2.14"/><circle class="cls-1" cx="96.28" cy="147.63" r="2.14"/><circle class="cls-1" cx="164.74" cy="164.74" r="2.14"/><circle class="cls-1" cx="156.18" cy="164.74" r="2.14"/><circle class="cls-1" cx="147.63" cy="164.74" r="2.14"/><circle class="cls-1" cx="164.74" cy="156.18" r="2.14"/><circle class="cls-1" cx="156.18" cy="156.18" r="2.14"/><circle class="cls-1" cx="147.63" cy="156.18" r="2.14"/><circle class="cls-1" cx="164.74" cy="147.63" r="2.14"/><circle class="cls-1" cx="156.18" cy="147.63" r="2.14"/><circle class="cls-1" cx="147.63" cy="147.63" r="2.14"/><circle class="cls-1" cx="164.74" cy="113.39" r="2.14"/><circle class="cls-1" cx="156.18" cy="113.39" r="2.14"/><circle class="cls-1" cx="147.63" cy="113.39" r="2.14"/><circle class="cls-1" cx="164.74" cy="104.84" r="2.14"/><circle class="cls-1" cx="156.18" cy="104.84" r="2.14"/><circle class="cls-1" cx="147.63" cy="104.84" r="2.14"/><circle class="cls-1" cx="164.74" cy="96.28" r="2.14"/><circle class="cls-1" cx="156.18" cy="96.28" r="2.14"/><circle class="cls-1" cx="147.63" cy="96.28" r="2.14"/><circle class="cls-1" cx="164.74" cy="87.72" r="2.14"/><circle class="cls-1" cx="156.18" cy="87.72" r="2.14"/><circle class="cls-1" cx="147.63" cy="87.72" r="2.14"/><circle class="cls-1" cx="113.39" cy="87.72" r="2.14"/><circle class="cls-1" cx="104.84" cy="87.72" r="2.14"/><circle class="cls-1" cx="96.28" cy="87.72" r="2.14"/></g></g></svg>