<svg xmlns="http://www.w3.org/2000/svg" viewBox="0 0 68.11 100.75"><defs><style>.cls-1{fill:#373737;}</style></defs><g id="圖層_2" data-name="圖層 2"><g id="圖層_1-2" data-name="圖層 1"><path class="cls-1" d="M46.25,91H21.86a4.88,4.88,0,1,0,0,9.76H46.25a4.88,4.88,0,1,0,0-9.76Z"/><path class="cls-1" d="M30.3.2C12.2,2.12-1.45,19.54.12,37.68,2.19,61.45,24.05,79.17,31.54,84.59a4.08,4.08,0,0,0,4.91-.09c7.78-6.08,31.66-26.66,31.66-50.43A34.08,34.08,0,0,0,30.3.2ZM34,54.93A22.69,22.69,0,1,1,56.73,32.24,22.69,22.69,0,0,1,34,54.93ZM45.79,27.05l-7.07-1-3.16-6.41c-1.1-2.22-2.87-2.22-4,0L28.43,26l-7.07,1c-2.44.35-3,2-1.22,3.76l5.12,5-1.21,7.05c-.42,2.43,1,3.47,3.2,2.32l6.33-3.32,6.32,3.32c2.19,1.15,3.62.11,3.2-2.32L41.9,35.8l5.11-5C48.78,29.09,48.24,27.4,45.79,27.05Z"/></g></g></svg>