<svg xmlns="http://www.w3.org/2000/svg" viewBox="0 0 94.29 100"><defs><style>.cls-1{fill:#f2955e;}</style></defs><g id="圖層_2" data-name="圖層 2"><g id="圖層_1-2" data-name="圖層 1"><path class="cls-1" d="M91.43,85.71H85.71v-45c-.27,0-.53,0-.81,0h-.66A15.7,15.7,0,0,1,72.09,35,15.67,15.67,0,0,1,60,40.71h-.66A15.7,15.7,0,0,1,47.14,35,15.67,15.67,0,0,1,35,40.71h-.67A15.7,15.7,0,0,1,22.19,35a15.67,15.67,0,0,1-12.14,5.75H9.38c-.27,0-.54,0-.81,0v45H2.86A2.86,2.86,0,0,0,0,88.57v10A1.43,1.43,0,0,0,1.43,100H92.86a1.43,1.43,0,0,0,1.43-1.43v-10A2.86,2.86,0,0,0,91.43,85.71ZM45.71,81.43a1.43,1.43,0,0,1-1.42,1.43H18.57a1.43,1.43,0,0,1-1.43-1.43V52.86a1.43,1.43,0,0,1,1.43-1.43H44.29a1.43,1.43,0,0,1,1.42,1.43ZM77.14,90a1.43,1.43,0,0,1-1.43,1.43H58.57A1.43,1.43,0,0,1,57.14,90V52.86a1.43,1.43,0,0,1,1.43-1.43H75.71a1.43,1.43,0,0,1,1.43,1.43Z"/><path class="cls-1" d="M68.57,69.29H65.71a3.57,3.57,0,1,0,0,7.14h2.86a3.57,3.57,0,1,0,0-7.14Zm24.9-48.58V14.79A5.73,5.73,0,0,0,92.72,12L87.55,2.89a5.69,5.69,0,0,0-5-2.89H11.69a5.69,5.69,0,0,0-5,2.89L1.56,12a5.73,5.73,0,0,0-.75,2.83v8.26h0V25a8.58,8.58,0,0,0,8.57,8.57h.67A8.57,8.57,0,0,0,18.62,25V20a3.57,3.57,0,0,1,7.14,0v5a8.58,8.58,0,0,0,8.57,8.57H35A8.57,8.57,0,0,0,43.57,25V20.71H43.5V20a3.57,3.57,0,0,1,7.14,0v3.05h.07V25a8.58,8.58,0,0,0,8.58,8.57H60A8.57,8.57,0,0,0,68.52,25V20a3.58,3.58,0,0,1,7.15,0v5a8.57,8.57,0,0,0,8.57,8.57h.66A8.57,8.57,0,0,0,93.47,25V20.71Z"/></g></g></svg>