<svg xmlns="http://www.w3.org/2000/svg" viewBox="0 0 100 97.96"><defs><style>.cls-1{fill:#373737;}</style></defs><g id="圖層_2" data-name="圖層 2"><g id="圖層_1-2" data-name="圖層 1"><path class="cls-1" d="M78.83,23.37a20.23,20.23,0,0,0-28.62,0,3.6,3.6,0,1,0,5.09,5.09,13,13,0,0,1,18.44,0,3.62,3.62,0,0,0,2.55,1.05,3.6,3.6,0,0,0,2.54-6.14Z"/><path class="cls-1" d="M89.45,10.55A36,36,0,0,0,34,55.87l-6.63,6.62-1-1a1.45,1.45,0,0,0-2,0L.84,84.9A2.89,2.89,0,0,0,.84,89L9,97.12a2.9,2.9,0,0,0,4.08,0L36.49,73.69a1.44,1.44,0,0,0,0-2l-1-1,6.31-6.31A36,36,0,0,0,89.45,10.55ZM81.31,53.32A24.48,24.48,0,1,1,88.48,36,24.34,24.34,0,0,1,81.31,53.32Z"/></g></g></svg>