<svg xmlns="http://www.w3.org/2000/svg" viewBox="0 0 100 100"><defs><style>.cls-1{fill:#f2f0eb;}</style></defs><g id="圖層_2" data-name="圖層 2"><g id="圖層_1-2" data-name="圖層 1"><path class="cls-1" d="M24.84,11.46c-7.1-2.2-9.39-4.37-11.71-11.1a.56.56,0,0,0-1,0C9.77,7.09,7.48,9.26.38,11.46a.51.51,0,0,0,0,1c7.1,2.19,9.39,4.36,11.71,11.09a.56.56,0,0,0,1,0c2.32-6.73,4.61-8.9,11.71-11.09A.51.51,0,0,0,24.84,11.46Z"/><path class="cls-1" d="M98.36,43.47,81,24.27A7,7,0,0,0,75.82,22H26.91a7,7,0,0,0-5.19,2.27L4.37,43.47a6.22,6.22,0,0,0,0,8.44L46.2,97.76a7.07,7.07,0,0,0,10.33,0L98.34,51.91A6.22,6.22,0,0,0,98.36,43.47ZM36.43,61.59a.78.78,0,0,1-1.46,0C31.72,52.16,28.51,49.11,18.55,46a.71.71,0,0,1,0-1.38c10-3.08,13.17-6.12,16.42-15.56a.78.78,0,0,1,1.46,0c3.25,9.44,6.46,12.48,16.42,15.56a.71.71,0,0,1,0,1.38C42.89,49.11,39.68,52.16,36.43,61.59Zm31.84,2.32c-4.84,1.49-6.39,3-8,7.54a.38.38,0,0,1-.71,0c-1.58-4.57-3.13-6-8-7.54a.35.35,0,0,1,0-.68c4.84-1.49,6.39-3,8-7.54a.38.38,0,0,1,.71,0c1.58,4.57,3.13,6.05,8,7.54A.35.35,0,0,1,68.27,63.91Z"/></g></g></svg>