<svg xmlns="http://www.w3.org/2000/svg" viewBox="0 0 100 92.81"><defs><style>.cls-1{fill:#151515;}</style></defs><g id="圖層_2" data-name="圖層 2"><g id="圖層_1-2" data-name="圖層 1"><path class="cls-1" d="M12.22,49.84a2,2,0,0,0,2.12,3.32c2.74-.9,6.13-2,9.91-3.27a215,215,0,0,0-24,40,2,2,0,0,0,3.14,2.43C13.24,84.2,23.63,76.58,34,69.09,31,75,28.39,80.33,26.52,84.32a2,2,0,0,0,3,2.5C39.45,79.59,59,65.16,72.44,54.16L67.5,50,58,52.65a10.39,10.39,0,0,1-9.13-1.75,10.48,10.48,0,0,1-3.39-12.3l3.72-9.19-5.46-8.26a8.76,8.76,0,0,1-.47-.85C31.3,30,19,42.63,12.22,49.84Z"/><path class="cls-1" d="M37.41,16.2a3.66,3.66,0,1,0-3.66,3.67A3.66,3.66,0,0,0,37.41,16.2ZM12.91,33.42a8.64,8.64,0,0,1,5.52-5.53,1,1,0,0,0,0-1.88,8.63,8.63,0,0,1-5.52-5.52,1,1,0,0,0-1.88,0A8.63,8.63,0,0,1,5.51,26a1,1,0,0,0,0,1.88A8.64,8.64,0,0,1,11,33.42,1,1,0,0,0,12.91,33.42Zm44,52.35a4.88,4.88,0,1,0,4.88-4.88A4.88,4.88,0,0,0,56.94,85.77ZM71.58,69.9a3.66,3.66,0,1,0,3.66-3.66A3.66,3.66,0,0,0,71.58,69.9ZM74,1.66,67.28,10.1a4.41,4.41,0,0,1-3.75,1.65L52.76,11a4.39,4.39,0,0,0-4,6.8l6,9a4.39,4.39,0,0,1,.72,2.42,4.29,4.29,0,0,1-.32,1.65l-4,10a4.27,4.27,0,0,0-.33,1.66,4.41,4.41,0,0,0,5.57,4.22l10.41-2.88a4.41,4.41,0,0,1,4,.87l8.27,7a4.39,4.39,0,0,0,7.21-3.16l.48-10.8a4.42,4.42,0,0,1,2.07-3.53l9.16-5.72a4.38,4.38,0,0,0-.78-7.83L87,16.87a4.39,4.39,0,0,1-2.72-3.05L81.71,3.33A4.39,4.39,0,0,0,74,1.66Zm4.08,8.49A6.09,6.09,0,0,1,78,16.4a2.33,2.33,0,0,1-4.17-.07,6.09,6.09,0,0,1,.11-6.25A2.32,2.32,0,0,1,78.09,10.15Z"/></g></g></svg>