<svg xmlns="http://www.w3.org/2000/svg" viewBox="0 0 100 93.11"><defs><style>.cls-1{fill:#f25041;}</style></defs><g id="圖層_2" data-name="圖層 2"><g id="圖層_1-2" data-name="圖層 1"><path class="cls-1" d="M65.79,0H34.21a8.9,8.9,0,0,0-8.9,8.9v5.26a1.32,1.32,0,0,0,1.32,1.32h6.26a1.32,1.32,0,0,0,1.32-1.32V8.9H65.79v5.26a1.32,1.32,0,0,0,1.32,1.32h6.26a1.32,1.32,0,0,0,1.32-1.32V8.9A8.9,8.9,0,0,0,65.79,0Z"/><path class="cls-1" d="M89.47,22.05H10.53A10.53,10.53,0,0,0,0,32.58v50A10.53,10.53,0,0,0,10.53,93.11H89.47A10.53,10.53,0,0,0,100,82.58v-50A10.53,10.53,0,0,0,89.47,22.05ZM42.08,48.39,25,65.45a2.41,2.41,0,0,1-3.41,0l-8.86-8.86a2.41,2.41,0,0,1,0-3.41L29.81,36.12a2.41,2.41,0,0,1,3.41,0L42.08,45A2.41,2.41,0,0,1,42.08,48.39ZM68.42,80A10.53,10.53,0,1,1,79,69.42,10.53,10.53,0,0,1,68.42,80Z"/></g></g></svg>