<svg xmlns="http://www.w3.org/2000/svg" viewBox="0 0 100 100"><defs><style>.cls-1{fill:#151515;}</style></defs><g id="圖層_2" data-name="圖層 2"><g id="圖層_1-2" data-name="圖層 1"><path class="cls-1" d="M77.49,64H67.67a6.66,6.66,0,0,0-5.49,2.88l-6.87,9.89a6.68,6.68,0,0,1-11-.07L37.7,66.9a6.68,6.68,0,0,0-5.54-3H22.51A22.57,22.57,0,0,0,0,86.59v10A3.36,3.36,0,0,0,3.35,100h93.3A3.36,3.36,0,0,0,100,96.63v-10A22.57,22.57,0,0,0,77.49,64ZM50,55.53a27.77,27.77,0,1,0-27.6-27.77A27.69,27.69,0,0,0,50,55.53Z"/></g></g></svg>