<svg xmlns="http://www.w3.org/2000/svg" viewBox="0 0 100 100"><defs><style>.cls-1{fill:#151515;}</style></defs><g id="圖層_2" data-name="圖層 2"><g id="圖層_1-2" data-name="圖層 1"><circle class="cls-1" cx="48.74" cy="50.47" r="25.46" transform="translate(-19.37 33.64) rotate(-32.12)"/><path class="cls-1" d="M50,18.89a3.47,3.47,0,0,1-3.47-3.47V3.47a3.47,3.47,0,1,1,6.94,0v12A3.47,3.47,0,0,1,50,18.89Z"/><path class="cls-1" d="M50,100a3.47,3.47,0,0,1-3.47-3.47v-12a3.47,3.47,0,1,1,6.94,0v12A3.47,3.47,0,0,1,50,100Z"/><path class="cls-1" d="M18.89,50a3.47,3.47,0,0,1-3.47,3.47H3.47a3.47,3.47,0,0,1,0-6.94h12A3.47,3.47,0,0,1,18.89,50Z"/><path class="cls-1" d="M100,50a3.47,3.47,0,0,1-3.47,3.47h-12a3.47,3.47,0,1,1,0-6.94h12A3.47,3.47,0,0,1,100,50Z"/><path class="cls-1" d="M28,72a3.48,3.48,0,0,1,0,4.92l-8.44,8.45a3.48,3.48,0,1,1-4.92-4.92L23.09,72A3.48,3.48,0,0,1,28,72Z"/><path class="cls-1" d="M85.36,14.64a3.49,3.49,0,0,1,0,4.92L76.91,28A3.48,3.48,0,1,1,72,23.09l8.45-8.45A3.49,3.49,0,0,1,85.36,14.64Z"/><path class="cls-1" d="M72,72a3.49,3.49,0,0,0,0,4.92l8.45,8.45a3.48,3.48,0,1,0,4.92-4.92L76.91,72A3.49,3.49,0,0,0,72,72Z"/><path class="cls-1" d="M14.64,14.64a3.49,3.49,0,0,0,0,4.92L23.09,28A3.47,3.47,0,1,0,28,23.09l-8.44-8.45A3.49,3.49,0,0,0,14.64,14.64Z"/></g></g></svg>